<svg width="64" height="64" viewBox="0 0 64 64" fill="none" xmlns="http://www.w3.org/2000/svg">
<circle cx="32" cy="32" r="32" fill="black"/>
<path d="M31.998 32.0001C31.998 29.0546 34.3859 26.6667 37.3314 26.6667C40.2769 26.6667 42.6647 29.0546 42.6647 32.0001C42.6647 34.9456 40.2769 37.3334 37.3314 37.3334C34.3859 37.3334 31.998 34.9456 31.998 32.0001Z" fill="#6AA7F3"/>
<path d="M21.3311 42.6666C21.3311 39.7211 23.7189 37.3333 26.6644 37.3333H31.9977V42.6666C31.9977 45.6121 29.6099 47.9999 26.6644 47.9999C23.7189 47.9999 21.3311 45.6121 21.3311 42.6666Z" fill="#0FA958"/>
<path d="M31.998 16V26.6667H37.3314C40.2769 26.6667 42.6647 24.2789 42.6647 21.3333C42.6647 18.3878 40.2769 16 37.3314 16H31.998Z" fill="#FF8577"/>
<path d="M21.3311 21.3334C21.3311 24.2789 23.7189 26.6667 26.6644 26.6667H31.9977V16.0001H26.6644C23.7189 16.0001 21.3311 18.3879 21.3311 21.3334Z" fill="#F24E1E"/>
<path d="M21.3311 31.9999C21.3311 34.9454 23.7189 37.3333 26.6644 37.3333H31.9977V26.6666H26.6644C23.7189 26.6666 21.3311 29.0544 21.3311 31.9999Z" fill="#A259FF"/>
</svg>
