<svg width="902" height="344" viewBox="0 0 902 344" fill="none" xmlns="http://www.w3.org/2000/svg">
<rect width="901.053" height="344" fill="#FEC62E"/>
<path d="M42.0625 51.9688L46.9531 53.9453V55.4766L40.5625 52.5156V51.375L46.9531 48.4219V49.9531L42.0625 51.9688ZM50.8516 53.7891H49.5469L49.4453 45.625H50.9609L50.8516 53.7891ZM49.3906 56.2734C49.3906 56.0391 49.4609 55.8438 49.6016 55.6875C49.7474 55.526 49.9609 55.4453 50.2422 55.4453C50.5234 55.4453 50.737 55.526 50.8828 55.6875C51.0286 55.8438 51.1016 56.0391 51.1016 56.2734C51.1016 56.5078 51.0286 56.7031 50.8828 56.8594C50.737 57.0104 50.5234 57.0859 50.2422 57.0859C49.9609 57.0859 49.7474 57.0104 49.6016 56.8594C49.4609 56.7031 49.3906 56.5078 49.3906 56.2734ZM53.5859 57V45.625H56.7969C57.7865 45.625 58.6615 45.8438 59.4219 46.2812C60.1823 46.7188 60.7682 47.3411 61.1797 48.1484C61.5964 48.9557 61.8073 49.8828 61.8125 50.9297V51.6562C61.8125 52.7292 61.6042 53.6693 61.1875 54.4766C60.776 55.2839 60.1849 55.9036 59.4141 56.3359C58.6484 56.7682 57.7552 56.9896 56.7344 57H53.5859ZM55.0859 46.8594V55.7734H56.6641C57.8203 55.7734 58.7188 55.4141 59.3594 54.6953C60.0052 53.9766 60.3281 52.9531 60.3281 51.625V50.9609C60.3281 49.6693 60.0234 48.6667 59.4141 47.9531C58.8099 47.2344 57.9505 46.8698 56.8359 46.8594H55.0859ZM72.8359 51.6797C72.8359 52.7943 72.6484 53.7682 72.2734 54.6016C71.8984 55.4297 71.3672 56.0625 70.6797 56.5C69.9922 56.9375 69.1901 57.1562 68.2734 57.1562C67.3776 57.1562 66.5833 56.9375 65.8906 56.5C65.1979 56.0573 64.6589 55.4297 64.2734 54.6172C63.8932 53.7995 63.6979 52.8542 63.6875 51.7812V50.9609C63.6875 49.8672 63.8776 48.901 64.2578 48.0625C64.638 47.224 65.1745 46.5833 65.8672 46.1406C66.5651 45.6927 67.362 45.4688 68.2578 45.4688C69.1693 45.4688 69.9714 45.6901 70.6641 46.1328C71.362 46.5703 71.8984 47.2083 72.2734 48.0469C72.6484 48.8802 72.8359 49.8516 72.8359 50.9609V51.6797ZM71.3438 50.9453C71.3438 49.5964 71.0729 48.5625 70.5312 47.8438C69.9896 47.1198 69.2318 46.7578 68.2578 46.7578C67.3099 46.7578 66.5625 47.1198 66.0156 47.8438C65.474 48.5625 65.1953 49.5625 65.1797 50.8438V51.6797C65.1797 52.987 65.4531 54.0156 66 54.7656C66.5521 55.5104 67.3099 55.8828 68.2734 55.8828C69.2422 55.8828 69.9922 55.5312 70.5234 54.8281C71.0547 54.1198 71.3281 53.1068 71.3438 51.7891V50.9453ZM83.4531 53.3906C83.3125 54.5938 82.8672 55.5234 82.1172 56.1797C81.3724 56.8307 80.3802 57.1562 79.1406 57.1562C77.7969 57.1562 76.7188 56.6745 75.9062 55.7109C75.099 54.7474 74.6953 53.4583 74.6953 51.8438V50.75C74.6953 49.6927 74.8828 48.763 75.2578 47.9609C75.638 47.1589 76.1745 46.5443 76.8672 46.1172C77.5599 45.6849 78.362 45.4688 79.2734 45.4688C80.4818 45.4688 81.4505 45.8073 82.1797 46.4844C82.9089 47.1562 83.3333 48.0885 83.4531 49.2812H81.9453C81.8151 48.375 81.5312 47.7188 81.0938 47.3125C80.6615 46.9062 80.0547 46.7031 79.2734 46.7031C78.3151 46.7031 77.5625 47.0573 77.0156 47.7656C76.474 48.474 76.2031 49.4818 76.2031 50.7891V51.8906C76.2031 53.125 76.4609 54.1068 76.9766 54.8359C77.4922 55.5651 78.2135 55.9297 79.1406 55.9297C79.974 55.9297 80.612 55.7422 81.0547 55.3672C81.5026 54.987 81.7995 54.3281 81.9453 53.3906H83.4531ZM93.1328 46.8594H89.4766V57H87.9844V46.8594H84.3359V45.625H93.1328V46.8594ZM98.4141 51.3359L101.383 45.625H103.086L99.1641 52.7578V57H97.6641V52.7578L93.7422 45.625H95.4609L98.4141 51.3359ZM106.055 52.5469V57H104.555V45.625H108.75C109.995 45.625 110.969 45.9427 111.672 46.5781C112.38 47.2135 112.734 48.0547 112.734 49.1016C112.734 50.2057 112.388 51.0573 111.695 51.6562C111.008 52.25 110.021 52.5469 108.734 52.5469H106.055ZM106.055 51.3203H108.75C109.552 51.3203 110.167 51.1328 110.594 50.7578C111.021 50.3776 111.234 49.8307 111.234 49.1172C111.234 48.4401 111.021 47.8984 110.594 47.4922C110.167 47.0859 109.581 46.875 108.836 46.8594H106.055V51.3203ZM121.078 51.7422H116.148V55.7734H121.875V57H114.648V45.625H121.797V46.8594H116.148V50.5156H121.078V51.7422ZM128.93 49.5703C129.57 48.7839 130.404 48.3906 131.43 48.3906C133.216 48.3906 134.117 49.3984 134.133 51.4141V57H132.688V51.4062C132.682 50.7969 132.542 50.3464 132.266 50.0547C131.995 49.763 131.57 49.6172 130.992 49.6172C130.523 49.6172 130.112 49.7422 129.758 49.9922C129.404 50.2422 129.128 50.5703 128.93 50.9766V57H127.484V45H128.93V49.5703ZM138.258 46.5V48.5469H139.836V49.6641H138.258V54.9062C138.258 55.2448 138.328 55.5 138.469 55.6719C138.609 55.8385 138.849 55.9219 139.188 55.9219C139.354 55.9219 139.583 55.8906 139.875 55.8281V57C139.495 57.1042 139.125 57.1562 138.766 57.1562C138.12 57.1562 137.633 56.9609 137.305 56.5703C136.977 56.1797 136.812 55.625 136.812 54.9062V49.6641H135.273V48.5469H136.812V46.5H138.258ZM142.891 48.5469L142.93 49.4844C143.549 48.7552 144.385 48.3906 145.438 48.3906C146.62 48.3906 147.424 48.8438 147.852 49.75C148.133 49.3438 148.497 49.0156 148.945 48.7656C149.398 48.5156 149.932 48.3906 150.547 48.3906C152.401 48.3906 153.344 49.3724 153.375 51.3359V57H151.93V51.4219C151.93 50.8177 151.792 50.3672 151.516 50.0703C151.24 49.7682 150.776 49.6172 150.125 49.6172C149.589 49.6172 149.143 49.7786 148.789 50.1016C148.435 50.4193 148.229 50.849 148.172 51.3906V57H146.719V51.4609C146.719 50.2318 146.117 49.6172 144.914 49.6172C143.966 49.6172 143.318 50.0208 142.969 50.8281V57H141.523V48.5469H142.891ZM157.133 57H155.688V45H157.133V57ZM164.57 51.9219L159.406 49.8984V48.4141L166.078 51.3672V52.5078L159.406 55.4688V53.9688L164.57 51.9219ZM42.0625 75.9688L46.9531 77.9453V79.4766L40.5625 76.5156V75.375L46.9531 72.4219V73.9531L42.0625 75.9688ZM50.6797 73.5703C51.3203 72.7839 52.1536 72.3906 53.1797 72.3906C54.9661 72.3906 55.8672 73.3984 55.8828 75.4141V81H54.4375V75.4062C54.4323 74.7969 54.2917 74.3464 54.0156 74.0547C53.7448 73.763 53.3203 73.6172 52.7422 73.6172C52.2734 73.6172 51.862 73.7422 51.5078 73.9922C51.1536 74.2422 50.8776 74.5703 50.6797 74.9766V81H49.2344V69H50.6797V73.5703ZM60.0078 70.5V72.5469H61.5859V73.6641H60.0078V78.9062C60.0078 79.2448 60.0781 79.5 60.2188 79.6719C60.3594 79.8385 60.599 79.9219 60.9375 79.9219C61.1042 79.9219 61.3333 79.8906 61.625 79.8281V81C61.2448 81.1042 60.875 81.1562 60.5156 81.1562C59.8698 81.1562 59.3828 80.9609 59.0547 80.5703C58.7266 80.1797 58.5625 79.625 58.5625 78.9062V73.6641H57.0234V72.5469H58.5625V70.5H60.0078ZM64.6406 72.5469L64.6797 73.4844C65.2995 72.7552 66.1354 72.3906 67.1875 72.3906C68.3698 72.3906 69.1745 72.8438 69.6016 73.75C69.8828 73.3438 70.2474 73.0156 70.6953 72.7656C71.1484 72.5156 71.6823 72.3906 72.2969 72.3906C74.151 72.3906 75.0938 73.3724 75.125 75.3359V81H73.6797V75.4219C73.6797 74.8177 73.5417 74.3672 73.2656 74.0703C72.9896 73.7682 72.526 73.6172 71.875 73.6172C71.3385 73.6172 70.8932 73.7786 70.5391 74.1016C70.1849 74.4193 69.9792 74.849 69.9219 75.3906V81H68.4688V75.4609C68.4688 74.2318 67.8672 73.6172 66.6641 73.6172C65.7161 73.6172 65.0677 74.0208 64.7188 74.8281V81H63.2734V72.5469H64.6406ZM78.8828 81H77.4375V69H78.8828V81ZM86.7422 81H85.2969V69H86.7422V81ZM94.2812 81C94.1979 80.8333 94.1302 80.5365 94.0781 80.1094C93.4062 80.8073 92.6042 81.1562 91.6719 81.1562C90.8385 81.1562 90.1536 80.9219 89.6172 80.4531C89.0859 79.9792 88.8203 79.3802 88.8203 78.6562C88.8203 77.776 89.1536 77.0938 89.8203 76.6094C90.4922 76.1198 91.4349 75.875 92.6484 75.875H94.0547V75.2109C94.0547 74.7057 93.9036 74.3047 93.6016 74.0078C93.2995 73.7057 92.8542 73.5547 92.2656 73.5547C91.75 73.5547 91.3177 73.6849 90.9688 73.9453C90.6198 74.2057 90.4453 74.5208 90.4453 74.8906H88.9922C88.9922 74.4688 89.1406 74.0625 89.4375 73.6719C89.7396 73.276 90.1458 72.9635 90.6562 72.7344C91.1719 72.5052 91.737 72.3906 92.3516 72.3906C93.3255 72.3906 94.0885 72.6354 94.6406 73.125C95.1927 73.6094 95.4792 74.2786 95.5 75.1328V79.0234C95.5 79.7995 95.599 80.4167 95.7969 80.875V81H94.2812ZM91.8828 79.8984C92.3359 79.8984 92.7656 79.7812 93.1719 79.5469C93.5781 79.3125 93.8724 79.0078 94.0547 78.6328V76.8984H92.9219C91.151 76.8984 90.2656 77.4167 90.2656 78.4531C90.2656 78.9062 90.4167 79.2604 90.7188 79.5156C91.0208 79.7708 91.4089 79.8984 91.8828 79.8984ZM99.1328 72.5469L99.1797 73.6094C99.8255 72.7969 100.669 72.3906 101.711 72.3906C103.497 72.3906 104.398 73.3984 104.414 75.4141V81H102.969V75.4062C102.964 74.7969 102.823 74.3464 102.547 74.0547C102.276 73.763 101.852 73.6172 101.273 73.6172C100.805 73.6172 100.393 73.7422 100.039 73.9922C99.6849 74.2422 99.4089 74.5703 99.2109 74.9766V81H97.7656V72.5469H99.1328ZM106.25 76.7031C106.25 75.3854 106.555 74.3385 107.164 73.5625C107.773 72.7812 108.581 72.3906 109.586 72.3906C110.617 72.3906 111.422 72.7552 112 73.4844L112.07 72.5469H113.391V80.7969C113.391 81.8906 113.065 82.7526 112.414 83.3828C111.768 84.013 110.898 84.3281 109.805 84.3281C109.195 84.3281 108.599 84.1979 108.016 83.9375C107.432 83.6771 106.987 83.3203 106.68 82.8672L107.43 82C108.049 82.7656 108.807 83.1484 109.703 83.1484C110.406 83.1484 110.953 82.9505 111.344 82.5547C111.74 82.1589 111.938 81.6016 111.938 80.8828V80.1562C111.359 80.8229 110.57 81.1562 109.57 81.1562C108.581 81.1562 107.779 80.7578 107.164 79.9609C106.555 79.1641 106.25 78.0781 106.25 76.7031ZM107.703 76.8672C107.703 77.8203 107.898 78.5703 108.289 79.1172C108.68 79.6589 109.227 79.9297 109.93 79.9297C110.841 79.9297 111.51 79.5156 111.938 78.6875V74.8281C111.495 74.0208 110.831 73.6172 109.945 73.6172C109.242 73.6172 108.693 73.8906 108.297 74.4375C107.901 74.9844 107.703 75.7943 107.703 76.8672ZM122.188 74.6406H115.672V73.3828H122.188V74.6406ZM122.188 77.8828H115.672V76.6328H122.188V77.8828ZM125.43 70.0625L125.195 72.8594H124.328L124.336 69H125.43V70.0625ZM127.539 70.0625L127.305 72.8594H126.438L126.445 69H127.539V70.0625ZM132.523 81.1562C131.378 81.1562 130.445 80.7812 129.727 80.0312C129.008 79.276 128.648 78.2682 128.648 77.0078V76.7422C128.648 75.9036 128.807 75.1562 129.125 74.5C129.448 73.8385 129.896 73.3229 130.469 72.9531C131.047 72.5781 131.672 72.3906 132.344 72.3906C133.443 72.3906 134.297 72.7526 134.906 73.4766C135.516 74.2005 135.82 75.237 135.82 76.5859V77.1875H130.094C130.115 78.0208 130.357 78.6953 130.82 79.2109C131.289 79.7214 131.883 79.9766 132.602 79.9766C133.112 79.9766 133.544 79.8724 133.898 79.6641C134.253 79.4557 134.562 79.1797 134.828 78.8359L135.711 79.5234C135.003 80.612 133.94 81.1562 132.523 81.1562ZM132.344 73.5781C131.76 73.5781 131.271 73.7917 130.875 74.2188C130.479 74.6406 130.234 75.2344 130.141 76H134.375V75.8906C134.333 75.1562 134.135 74.5885 133.781 74.1875C133.427 73.7812 132.948 73.5781 132.344 73.5781ZM138.867 72.5469L138.914 73.6094C139.56 72.7969 140.404 72.3906 141.445 72.3906C143.232 72.3906 144.133 73.3984 144.148 75.4141V81H142.703V75.4062C142.698 74.7969 142.557 74.3464 142.281 74.0547C142.01 73.763 141.586 73.6172 141.008 73.6172C140.539 73.6172 140.128 73.7422 139.773 73.9922C139.419 74.2422 139.143 74.5703 138.945 74.9766V81H137.5V72.5469H138.867ZM146.586 70.0625L146.352 72.8594H145.484L145.492 69H146.586V70.0625ZM148.695 70.0625L148.461 72.8594H147.594L147.602 69H148.695V70.0625ZM155.758 75.9219L150.594 73.8984V72.4141L157.266 75.3672V76.5078L150.594 79.4688V77.9688L155.758 75.9219ZM42.0625 99.9688L46.9531 101.945V103.477L40.5625 100.516V99.375L46.9531 96.4219V97.9531L42.0625 99.9688ZM50.6797 97.5703C51.3203 96.7839 52.1536 96.3906 53.1797 96.3906C54.9661 96.3906 55.8672 97.3984 55.8828 99.4141V105H54.4375V99.4062C54.4323 98.7969 54.2917 98.3464 54.0156 98.0547C53.7448 97.763 53.3203 97.6172 52.7422 97.6172C52.2734 97.6172 51.862 97.7422 51.5078 97.9922C51.1536 98.2422 50.8776 98.5703 50.6797 98.9766V105H49.2344V93H50.6797V97.5703ZM61.5547 105.156C60.4089 105.156 59.4766 104.781 58.7578 104.031C58.0391 103.276 57.6797 102.268 57.6797 101.008V100.742C57.6797 99.9036 57.8385 99.1562 58.1562 98.5C58.4792 97.8385 58.9271 97.3229 59.5 96.9531C60.0781 96.5781 60.7031 96.3906 61.375 96.3906C62.474 96.3906 63.3281 96.7526 63.9375 97.4766C64.5469 98.2005 64.8516 99.237 64.8516 100.586V101.188H59.125C59.1458 102.021 59.388 102.695 59.8516 103.211C60.3203 103.721 60.9141 103.977 61.6328 103.977C62.1432 103.977 62.5755 103.872 62.9297 103.664C63.2839 103.456 63.5938 103.18 63.8594 102.836L64.7422 103.523C64.0339 104.612 62.9714 105.156 61.5547 105.156ZM61.375 97.5781C60.7917 97.5781 60.3021 97.7917 59.9062 98.2188C59.5104 98.6406 59.2656 99.2344 59.1719 100H63.4062V99.8906C63.3646 99.1562 63.1667 98.5885 62.8125 98.1875C62.4583 97.7812 61.9792 97.5781 61.375 97.5781ZM71.75 105C71.6667 104.833 71.599 104.536 71.5469 104.109C70.875 104.807 70.0729 105.156 69.1406 105.156C68.3073 105.156 67.6224 104.922 67.0859 104.453C66.5547 103.979 66.2891 103.38 66.2891 102.656C66.2891 101.776 66.6224 101.094 67.2891 100.609C67.9609 100.12 68.9036 99.875 70.1172 99.875H71.5234V99.2109C71.5234 98.7057 71.3724 98.3047 71.0703 98.0078C70.7682 97.7057 70.3229 97.5547 69.7344 97.5547C69.2188 97.5547 68.7865 97.6849 68.4375 97.9453C68.0885 98.2057 67.9141 98.5208 67.9141 98.8906H66.4609C66.4609 98.4688 66.6094 98.0625 66.9062 97.6719C67.2083 97.276 67.6146 96.9635 68.125 96.7344C68.6406 96.5052 69.2057 96.3906 69.8203 96.3906C70.7943 96.3906 71.5573 96.6354 72.1094 97.125C72.6615 97.6094 72.9479 98.2786 72.9688 99.1328V103.023C72.9688 103.799 73.0677 104.417 73.2656 104.875V105H71.75ZM69.3516 103.898C69.8047 103.898 70.2344 103.781 70.6406 103.547C71.0469 103.312 71.3411 103.008 71.5234 102.633V100.898H70.3906C68.6198 100.898 67.7344 101.417 67.7344 102.453C67.7344 102.906 67.8854 103.26 68.1875 103.516C68.4896 103.771 68.8776 103.898 69.3516 103.898ZM74.8828 100.703C74.8828 99.4062 75.1901 98.3646 75.8047 97.5781C76.4193 96.7865 77.224 96.3906 78.2188 96.3906C79.2083 96.3906 79.9922 96.7292 80.5703 97.4062V93H82.0156V105H80.6875L80.6172 104.094C80.0391 104.802 79.2344 105.156 78.2031 105.156C77.224 105.156 76.4245 104.755 75.8047 103.953C75.1901 103.151 74.8828 102.104 74.8828 100.812V100.703ZM76.3281 100.867C76.3281 101.826 76.526 102.576 76.9219 103.117C77.3177 103.659 77.8646 103.93 78.5625 103.93C79.4792 103.93 80.1484 103.518 80.5703 102.695V98.8125C80.138 98.0156 79.474 97.6172 78.5781 97.6172C77.8698 97.6172 77.3177 97.8906 76.9219 98.4375C76.526 98.9844 76.3281 99.7943 76.3281 100.867ZM89.3828 99.9219L84.2188 97.8984V96.4141L90.8906 99.3672V100.508L84.2188 103.469V101.969L89.3828 99.9219ZM42.0625 123.969L46.9531 125.945V127.477L40.5625 124.516V123.375L46.9531 120.422V121.953L42.0625 123.969ZM50.5938 120.547L50.6328 121.484C51.2526 120.755 52.0885 120.391 53.1406 120.391C54.3229 120.391 55.1276 120.844 55.5547 121.75C55.8359 121.344 56.2005 121.016 56.6484 120.766C57.1016 120.516 57.6354 120.391 58.25 120.391C60.1042 120.391 61.0469 121.372 61.0781 123.336V129H59.6328V123.422C59.6328 122.818 59.4948 122.367 59.2188 122.07C58.9427 121.768 58.4792 121.617 57.8281 121.617C57.2917 121.617 56.8464 121.779 56.4922 122.102C56.138 122.419 55.9323 122.849 55.875 123.391V129H54.4219V123.461C54.4219 122.232 53.8203 121.617 52.6172 121.617C51.6693 121.617 51.0208 122.021 50.6719 122.828V129H49.2266V120.547H50.5938ZM66.7734 129.156C65.6276 129.156 64.6953 128.781 63.9766 128.031C63.2578 127.276 62.8984 126.268 62.8984 125.008V124.742C62.8984 123.904 63.0573 123.156 63.375 122.5C63.6979 121.839 64.1458 121.323 64.7188 120.953C65.2969 120.578 65.9219 120.391 66.5938 120.391C67.6927 120.391 68.5469 120.753 69.1562 121.477C69.7656 122.201 70.0703 123.237 70.0703 124.586V125.188H64.3438C64.3646 126.021 64.6068 126.695 65.0703 127.211C65.5391 127.721 66.1328 127.977 66.8516 127.977C67.362 127.977 67.7943 127.872 68.1484 127.664C68.5026 127.456 68.8125 127.18 69.0781 126.836L69.9609 127.523C69.2526 128.612 68.1901 129.156 66.7734 129.156ZM66.5938 121.578C66.0104 121.578 65.5208 121.792 65.125 122.219C64.7292 122.641 64.4844 123.234 64.3906 124H68.625V123.891C68.5833 123.156 68.3854 122.589 68.0312 122.188C67.6771 121.781 67.1979 121.578 66.5938 121.578ZM73.7109 118.5V120.547H75.2891V121.664H73.7109V126.906C73.7109 127.245 73.7812 127.5 73.9219 127.672C74.0625 127.839 74.3021 127.922 74.6406 127.922C74.8073 127.922 75.0365 127.891 75.3281 127.828V129C74.9479 129.104 74.5781 129.156 74.2188 129.156C73.5729 129.156 73.0859 128.961 72.7578 128.57C72.4297 128.18 72.2656 127.625 72.2656 126.906V121.664H70.7266V120.547H72.2656V118.5H73.7109ZM82.2031 129C82.1198 128.833 82.0521 128.536 82 128.109C81.3281 128.807 80.526 129.156 79.5938 129.156C78.7604 129.156 78.0755 128.922 77.5391 128.453C77.0078 127.979 76.7422 127.38 76.7422 126.656C76.7422 125.776 77.0755 125.094 77.7422 124.609C78.4141 124.12 79.3568 123.875 80.5703 123.875H81.9766V123.211C81.9766 122.706 81.8255 122.305 81.5234 122.008C81.2214 121.706 80.776 121.555 80.1875 121.555C79.6719 121.555 79.2396 121.685 78.8906 121.945C78.5417 122.206 78.3672 122.521 78.3672 122.891H76.9141C76.9141 122.469 77.0625 122.062 77.3594 121.672C77.6615 121.276 78.0677 120.964 78.5781 120.734C79.0938 120.505 79.6589 120.391 80.2734 120.391C81.2474 120.391 82.0104 120.635 82.5625 121.125C83.1146 121.609 83.401 122.279 83.4219 123.133V127.023C83.4219 127.799 83.5208 128.417 83.7188 128.875V129H82.2031ZM79.8047 127.898C80.2578 127.898 80.6875 127.781 81.0938 127.547C81.5 127.312 81.7943 127.008 81.9766 126.633V124.898H80.8438C79.0729 124.898 78.1875 125.417 78.1875 126.453C78.1875 126.906 78.3385 127.26 78.6406 127.516C78.9427 127.771 79.3307 127.898 79.8047 127.898ZM93.0469 127.977C93.5625 127.977 94.013 127.82 94.3984 127.508C94.7839 127.195 94.9974 126.805 95.0391 126.336H96.4062C96.3802 126.82 96.2135 127.281 95.9062 127.719C95.599 128.156 95.1875 128.505 94.6719 128.766C94.1615 129.026 93.6198 129.156 93.0469 129.156C91.8958 129.156 90.9792 128.773 90.2969 128.008C89.6198 127.237 89.2812 126.185 89.2812 124.852V124.609C89.2812 123.786 89.4323 123.055 89.7344 122.414C90.0365 121.773 90.4688 121.276 91.0312 120.922C91.599 120.568 92.2682 120.391 93.0391 120.391C93.987 120.391 94.7734 120.674 95.3984 121.242C96.0286 121.81 96.3646 122.547 96.4062 123.453H95.0391C94.9974 122.906 94.7891 122.458 94.4141 122.109C94.0443 121.755 93.5859 121.578 93.0391 121.578C92.3047 121.578 91.7344 121.844 91.3281 122.375C90.9271 122.901 90.7266 123.664 90.7266 124.664V124.938C90.7266 125.911 90.9271 126.661 91.3281 127.188C91.7292 127.714 92.3021 127.977 93.0469 127.977ZM99.4766 121.57C100.117 120.784 100.951 120.391 101.977 120.391C103.763 120.391 104.664 121.398 104.68 123.414V129H103.234V123.406C103.229 122.797 103.089 122.346 102.812 122.055C102.542 121.763 102.117 121.617 101.539 121.617C101.07 121.617 100.659 121.742 100.305 121.992C99.9505 122.242 99.6745 122.57 99.4766 122.977V129H98.0312V117H99.4766V121.57ZM112.062 129C111.979 128.833 111.911 128.536 111.859 128.109C111.188 128.807 110.385 129.156 109.453 129.156C108.62 129.156 107.935 128.922 107.398 128.453C106.867 127.979 106.602 127.38 106.602 126.656C106.602 125.776 106.935 125.094 107.602 124.609C108.273 124.12 109.216 123.875 110.43 123.875H111.836V123.211C111.836 122.706 111.685 122.305 111.383 122.008C111.081 121.706 110.635 121.555 110.047 121.555C109.531 121.555 109.099 121.685 108.75 121.945C108.401 122.206 108.227 122.521 108.227 122.891H106.773C106.773 122.469 106.922 122.062 107.219 121.672C107.521 121.276 107.927 120.964 108.438 120.734C108.953 120.505 109.518 120.391 110.133 120.391C111.107 120.391 111.87 120.635 112.422 121.125C112.974 121.609 113.26 122.279 113.281 123.133V127.023C113.281 127.799 113.38 128.417 113.578 128.875V129H112.062ZM109.664 127.898C110.117 127.898 110.547 127.781 110.953 127.547C111.359 127.312 111.654 127.008 111.836 126.633V124.898H110.703C108.932 124.898 108.047 125.417 108.047 126.453C108.047 126.906 108.198 127.26 108.5 127.516C108.802 127.771 109.19 127.898 109.664 127.898ZM119.633 121.844C119.414 121.807 119.177 121.789 118.922 121.789C117.974 121.789 117.331 122.193 116.992 123V129H115.547V120.547H116.953L116.977 121.523C117.451 120.768 118.122 120.391 118.992 120.391C119.273 120.391 119.487 120.427 119.633 120.5V121.844ZM125.891 126.758C125.891 126.367 125.742 126.065 125.445 125.852C125.154 125.633 124.641 125.445 123.906 125.289C123.177 125.133 122.596 124.945 122.164 124.727C121.737 124.508 121.419 124.247 121.211 123.945C121.008 123.643 120.906 123.284 120.906 122.867C120.906 122.174 121.198 121.589 121.781 121.109C122.37 120.63 123.12 120.391 124.031 120.391C124.99 120.391 125.766 120.638 126.359 121.133C126.958 121.628 127.258 122.26 127.258 123.031H125.805C125.805 122.635 125.635 122.294 125.297 122.008C124.964 121.721 124.542 121.578 124.031 121.578C123.505 121.578 123.094 121.693 122.797 121.922C122.5 122.151 122.352 122.451 122.352 122.82C122.352 123.169 122.49 123.432 122.766 123.609C123.042 123.786 123.539 123.956 124.258 124.117C124.982 124.279 125.568 124.471 126.016 124.695C126.464 124.919 126.794 125.19 127.008 125.508C127.227 125.82 127.336 126.203 127.336 126.656C127.336 127.411 127.034 128.018 126.43 128.477C125.826 128.93 125.042 129.156 124.078 129.156C123.401 129.156 122.802 129.036 122.281 128.797C121.76 128.557 121.352 128.224 121.055 127.797C120.763 127.365 120.617 126.898 120.617 126.398H122.062C122.089 126.883 122.281 127.268 122.641 127.555C123.005 127.836 123.484 127.977 124.078 127.977C124.625 127.977 125.062 127.867 125.391 127.648C125.724 127.424 125.891 127.128 125.891 126.758ZM132.727 129.156C131.581 129.156 130.648 128.781 129.93 128.031C129.211 127.276 128.852 126.268 128.852 125.008V124.742C128.852 123.904 129.01 123.156 129.328 122.5C129.651 121.839 130.099 121.323 130.672 120.953C131.25 120.578 131.875 120.391 132.547 120.391C133.646 120.391 134.5 120.753 135.109 121.477C135.719 122.201 136.023 123.237 136.023 124.586V125.188H130.297C130.318 126.021 130.56 126.695 131.023 127.211C131.492 127.721 132.086 127.977 132.805 127.977C133.315 127.977 133.747 127.872 134.102 127.664C134.456 127.456 134.766 127.18 135.031 126.836L135.914 127.523C135.206 128.612 134.143 129.156 132.727 129.156ZM132.547 121.578C131.964 121.578 131.474 121.792 131.078 122.219C130.682 122.641 130.438 123.234 130.344 124H134.578V123.891C134.536 123.156 134.339 122.589 133.984 122.188C133.63 121.781 133.151 121.578 132.547 121.578ZM139.664 118.5V120.547H141.242V121.664H139.664V126.906C139.664 127.245 139.734 127.5 139.875 127.672C140.016 127.839 140.255 127.922 140.594 127.922C140.76 127.922 140.99 127.891 141.281 127.828V129C140.901 129.104 140.531 129.156 140.172 129.156C139.526 129.156 139.039 128.961 138.711 128.57C138.383 128.18 138.219 127.625 138.219 126.906V121.664H136.68V120.547H138.219V118.5H139.664ZM149.547 122.641H143.031V121.383H149.547V122.641ZM149.547 125.883H143.031V124.633H149.547V125.883ZM152.789 118.062L152.555 120.859H151.688L151.695 117H152.789V118.062ZM154.898 118.062L154.664 120.859H153.797L153.805 117H154.898V118.062ZM165.078 117.625V125.359C165.073 126.432 164.734 127.31 164.062 127.992C163.396 128.674 162.49 129.057 161.344 129.141L160.945 129.156C159.701 129.156 158.708 128.82 157.969 128.148C157.229 127.477 156.854 126.552 156.844 125.375V117.625H158.328V125.328C158.328 126.151 158.555 126.792 159.008 127.25C159.461 127.703 160.107 127.93 160.945 127.93C161.794 127.93 162.443 127.703 162.891 127.25C163.344 126.797 163.57 126.159 163.57 125.336V117.625H165.078ZM175.305 118.859H171.648V129H170.156V118.859H166.508V117.625H175.305V118.859ZM183.266 123.977H178.492V129H176.992V117.625H184.039V118.859H178.492V122.75H183.266V123.977ZM188.617 124.758H184.805V123.578H188.617V124.758ZM196.781 120.594C196.781 121.161 196.63 121.667 196.328 122.109C196.031 122.552 195.628 122.898 195.117 123.148C195.711 123.404 196.18 123.776 196.523 124.266C196.872 124.755 197.047 125.31 197.047 125.93C197.047 126.914 196.714 127.698 196.047 128.281C195.385 128.865 194.513 129.156 193.43 129.156C192.336 129.156 191.458 128.865 190.797 128.281C190.141 127.693 189.812 126.909 189.812 125.93C189.812 125.315 189.979 124.76 190.312 124.266C190.651 123.771 191.117 123.396 191.711 123.141C191.206 122.891 190.807 122.544 190.516 122.102C190.224 121.659 190.078 121.156 190.078 120.594C190.078 119.635 190.385 118.875 191 118.312C191.615 117.75 192.424 117.469 193.43 117.469C194.43 117.469 195.237 117.75 195.852 118.312C196.471 118.875 196.781 119.635 196.781 120.594ZM195.602 125.898C195.602 125.263 195.398 124.745 194.992 124.344C194.591 123.943 194.065 123.742 193.414 123.742C192.763 123.742 192.24 123.94 191.844 124.336C191.453 124.732 191.258 125.253 191.258 125.898C191.258 126.544 191.448 127.052 191.828 127.422C192.214 127.792 192.747 127.977 193.43 127.977C194.107 127.977 194.638 127.792 195.023 127.422C195.409 127.047 195.602 126.539 195.602 125.898ZM193.43 118.656C192.862 118.656 192.401 118.833 192.047 119.188C191.698 119.536 191.523 120.013 191.523 120.617C191.523 121.195 191.695 121.664 192.039 122.023C192.388 122.378 192.852 122.555 193.43 122.555C194.008 122.555 194.469 122.378 194.812 122.023C195.161 121.664 195.336 121.195 195.336 120.617C195.336 120.039 195.156 119.568 194.797 119.203C194.438 118.839 193.982 118.656 193.43 118.656ZM200.086 118.062L199.852 120.859H198.984L198.992 117H200.086V118.062ZM202.195 118.062L201.961 120.859H201.094L201.102 117H202.195V118.062ZM209.258 123.922L204.094 121.898V120.414L210.766 123.367V124.508L204.094 127.469V125.969L209.258 123.922ZM42.0625 147.969L46.9531 149.945V151.477L40.5625 148.516V147.375L46.9531 144.422V145.953L42.0625 147.969ZM50.5938 144.547L50.6328 145.484C51.2526 144.755 52.0885 144.391 53.1406 144.391C54.3229 144.391 55.1276 144.844 55.5547 145.75C55.8359 145.344 56.2005 145.016 56.6484 144.766C57.1016 144.516 57.6354 144.391 58.25 144.391C60.1042 144.391 61.0469 145.372 61.0781 147.336V153H59.6328V147.422C59.6328 146.818 59.4948 146.367 59.2188 146.07C58.9427 145.768 58.4792 145.617 57.8281 145.617C57.2917 145.617 56.8464 145.779 56.4922 146.102C56.138 146.419 55.9323 146.849 55.875 147.391V153H54.4219V147.461C54.4219 146.232 53.8203 145.617 52.6172 145.617C51.6693 145.617 51.0208 146.021 50.6719 146.828V153H49.2266V144.547H50.5938ZM66.7734 153.156C65.6276 153.156 64.6953 152.781 63.9766 152.031C63.2578 151.276 62.8984 150.268 62.8984 149.008V148.742C62.8984 147.904 63.0573 147.156 63.375 146.5C63.6979 145.839 64.1458 145.323 64.7188 144.953C65.2969 144.578 65.9219 144.391 66.5938 144.391C67.6927 144.391 68.5469 144.753 69.1562 145.477C69.7656 146.201 70.0703 147.237 70.0703 148.586V149.188H64.3438C64.3646 150.021 64.6068 150.695 65.0703 151.211C65.5391 151.721 66.1328 151.977 66.8516 151.977C67.362 151.977 67.7943 151.872 68.1484 151.664C68.5026 151.456 68.8125 151.18 69.0781 150.836L69.9609 151.523C69.2526 152.612 68.1901 153.156 66.7734 153.156ZM66.5938 145.578C66.0104 145.578 65.5208 145.792 65.125 146.219C64.7292 146.641 64.4844 147.234 64.3906 148H68.625V147.891C68.5833 147.156 68.3854 146.589 68.0312 146.188C67.6771 145.781 67.1979 145.578 66.5938 145.578ZM73.7109 142.5V144.547H75.2891V145.664H73.7109V150.906C73.7109 151.245 73.7812 151.5 73.9219 151.672C74.0625 151.839 74.3021 151.922 74.6406 151.922C74.8073 151.922 75.0365 151.891 75.3281 151.828V153C74.9479 153.104 74.5781 153.156 74.2188 153.156C73.5729 153.156 73.0859 152.961 72.7578 152.57C72.4297 152.18 72.2656 151.625 72.2656 150.906V145.664H70.7266V144.547H72.2656V142.5H73.7109ZM82.2031 153C82.1198 152.833 82.0521 152.536 82 152.109C81.3281 152.807 80.526 153.156 79.5938 153.156C78.7604 153.156 78.0755 152.922 77.5391 152.453C77.0078 151.979 76.7422 151.38 76.7422 150.656C76.7422 149.776 77.0755 149.094 77.7422 148.609C78.4141 148.12 79.3568 147.875 80.5703 147.875H81.9766V147.211C81.9766 146.706 81.8255 146.305 81.5234 146.008C81.2214 145.706 80.776 145.555 80.1875 145.555C79.6719 145.555 79.2396 145.685 78.8906 145.945C78.5417 146.206 78.3672 146.521 78.3672 146.891H76.9141C76.9141 146.469 77.0625 146.062 77.3594 145.672C77.6615 145.276 78.0677 144.964 78.5781 144.734C79.0938 144.505 79.6589 144.391 80.2734 144.391C81.2474 144.391 82.0104 144.635 82.5625 145.125C83.1146 145.609 83.401 146.279 83.4219 147.133V151.023C83.4219 151.799 83.5208 152.417 83.7188 152.875V153H82.2031ZM79.8047 151.898C80.2578 151.898 80.6875 151.781 81.0938 151.547C81.5 151.312 81.7943 151.008 81.9766 150.633V148.898H80.8438C79.0729 148.898 78.1875 149.417 78.1875 150.453C78.1875 150.906 78.3385 151.26 78.6406 151.516C78.9427 151.771 79.3307 151.898 79.8047 151.898ZM91.0234 144.547L91.0703 145.609C91.7161 144.797 92.5599 144.391 93.6016 144.391C95.388 144.391 96.2891 145.398 96.3047 147.414V153H94.8594V147.406C94.8542 146.797 94.7135 146.346 94.4375 146.055C94.1667 145.763 93.7422 145.617 93.1641 145.617C92.6953 145.617 92.2839 145.742 91.9297 145.992C91.5755 146.242 91.2995 146.57 91.1016 146.977V153H89.6562V144.547H91.0234ZM103.703 153C103.62 152.833 103.552 152.536 103.5 152.109C102.828 152.807 102.026 153.156 101.094 153.156C100.26 153.156 99.5755 152.922 99.0391 152.453C98.5078 151.979 98.2422 151.38 98.2422 150.656C98.2422 149.776 98.5755 149.094 99.2422 148.609C99.9141 148.12 100.857 147.875 102.07 147.875H103.477V147.211C103.477 146.706 103.326 146.305 103.023 146.008C102.721 145.706 102.276 145.555 101.688 145.555C101.172 145.555 100.74 145.685 100.391 145.945C100.042 146.206 99.8672 146.521 99.8672 146.891H98.4141C98.4141 146.469 98.5625 146.062 98.8594 145.672C99.1615 145.276 99.5677 144.964 100.078 144.734C100.594 144.505 101.159 144.391 101.773 144.391C102.747 144.391 103.51 144.635 104.062 145.125C104.615 145.609 104.901 146.279 104.922 147.133V151.023C104.922 151.799 105.021 152.417 105.219 152.875V153H103.703ZM101.305 151.898C101.758 151.898 102.188 151.781 102.594 151.547C103 151.312 103.294 151.008 103.477 150.633V148.898H102.344C100.573 148.898 99.6875 149.417 99.6875 150.453C99.6875 150.906 99.8385 151.26 100.141 151.516C100.443 151.771 100.831 151.898 101.305 151.898ZM108.547 144.547L108.586 145.484C109.206 144.755 110.042 144.391 111.094 144.391C112.276 144.391 113.081 144.844 113.508 145.75C113.789 145.344 114.154 145.016 114.602 144.766C115.055 144.516 115.589 144.391 116.203 144.391C118.057 144.391 119 145.372 119.031 147.336V153H117.586V147.422C117.586 146.818 117.448 146.367 117.172 146.07C116.896 145.768 116.432 145.617 115.781 145.617C115.245 145.617 114.799 145.779 114.445 146.102C114.091 146.419 113.885 146.849 113.828 147.391V153H112.375V147.461C112.375 146.232 111.773 145.617 110.57 145.617C109.622 145.617 108.974 146.021 108.625 146.828V153H107.18V144.547H108.547ZM124.727 153.156C123.581 153.156 122.648 152.781 121.93 152.031C121.211 151.276 120.852 150.268 120.852 149.008V148.742C120.852 147.904 121.01 147.156 121.328 146.5C121.651 145.839 122.099 145.323 122.672 144.953C123.25 144.578 123.875 144.391 124.547 144.391C125.646 144.391 126.5 144.753 127.109 145.477C127.719 146.201 128.023 147.237 128.023 148.586V149.188H122.297C122.318 150.021 122.56 150.695 123.023 151.211C123.492 151.721 124.086 151.977 124.805 151.977C125.315 151.977 125.747 151.872 126.102 151.664C126.456 151.456 126.766 151.18 127.031 150.836L127.914 151.523C127.206 152.612 126.143 153.156 124.727 153.156ZM124.547 145.578C123.964 145.578 123.474 145.792 123.078 146.219C122.682 146.641 122.438 147.234 122.344 148H126.578V147.891C126.536 147.156 126.339 146.589 125.984 146.188C125.63 145.781 125.151 145.578 124.547 145.578ZM136.312 146.641H129.797V145.383H136.312V146.641ZM136.312 149.883H129.797V148.633H136.312V149.883ZM139.555 142.062L139.32 144.859H138.453L138.461 141H139.555V142.062ZM141.664 142.062L141.43 144.859H140.562L140.57 141H141.664V142.062ZM146.398 151.039L148.492 144.547H149.969L146.938 153H145.836L142.773 144.547H144.25L146.398 151.039ZM152.93 153H151.484V144.547H152.93V153ZM151.367 142.305C151.367 142.07 151.438 141.872 151.578 141.711C151.724 141.549 151.938 141.469 152.219 141.469C152.5 141.469 152.714 141.549 152.859 141.711C153.005 141.872 153.078 142.07 153.078 142.305C153.078 142.539 153.005 142.734 152.859 142.891C152.714 143.047 152.5 143.125 152.219 143.125C151.938 143.125 151.724 143.047 151.578 142.891C151.438 142.734 151.367 142.539 151.367 142.305ZM158.758 153.156C157.612 153.156 156.68 152.781 155.961 152.031C155.242 151.276 154.883 150.268 154.883 149.008V148.742C154.883 147.904 155.042 147.156 155.359 146.5C155.682 145.839 156.13 145.323 156.703 144.953C157.281 144.578 157.906 144.391 158.578 144.391C159.677 144.391 160.531 144.753 161.141 145.477C161.75 146.201 162.055 147.237 162.055 148.586V149.188H156.328C156.349 150.021 156.591 150.695 157.055 151.211C157.523 151.721 158.117 151.977 158.836 151.977C159.346 151.977 159.779 151.872 160.133 151.664C160.487 151.456 160.797 151.18 161.062 150.836L161.945 151.523C161.237 152.612 160.174 153.156 158.758 153.156ZM158.578 145.578C157.995 145.578 157.505 145.792 157.109 146.219C156.714 146.641 156.469 147.234 156.375 148H160.609V147.891C160.568 147.156 160.37 146.589 160.016 146.188C159.661 145.781 159.182 145.578 158.578 145.578ZM171.219 151.008L172.844 144.547H174.289L171.828 153H170.656L168.602 146.594L166.602 153H165.43L162.977 144.547H164.414L166.078 150.875L168.047 144.547H169.211L171.219 151.008ZM182.906 148.867C182.906 150.154 182.612 151.19 182.023 151.977C181.435 152.763 180.638 153.156 179.633 153.156C178.607 153.156 177.799 152.831 177.211 152.18V156.25H175.766V144.547H177.086L177.156 145.484C177.745 144.755 178.562 144.391 179.609 144.391C180.625 144.391 181.427 144.773 182.016 145.539C182.609 146.305 182.906 147.37 182.906 148.734V148.867ZM181.461 148.703C181.461 147.75 181.258 146.997 180.852 146.445C180.445 145.893 179.888 145.617 179.18 145.617C178.305 145.617 177.648 146.005 177.211 146.781V150.82C177.643 151.591 178.305 151.977 179.195 151.977C179.888 151.977 180.438 151.703 180.844 151.156C181.255 150.604 181.461 149.786 181.461 148.703ZM184.367 148.695C184.367 147.867 184.529 147.122 184.852 146.461C185.18 145.799 185.633 145.289 186.211 144.93C186.794 144.57 187.458 144.391 188.203 144.391C189.354 144.391 190.284 144.789 190.992 145.586C191.706 146.383 192.062 147.443 192.062 148.766V148.867C192.062 149.69 191.904 150.43 191.586 151.086C191.273 151.737 190.823 152.245 190.234 152.609C189.651 152.974 188.979 153.156 188.219 153.156C187.073 153.156 186.143 152.758 185.43 151.961C184.721 151.164 184.367 150.109 184.367 148.797V148.695ZM185.82 148.867C185.82 149.805 186.036 150.557 186.469 151.125C186.906 151.693 187.49 151.977 188.219 151.977C188.953 151.977 189.536 151.69 189.969 151.117C190.401 150.539 190.617 149.732 190.617 148.695C190.617 147.768 190.396 147.018 189.953 146.445C189.516 145.867 188.932 145.578 188.203 145.578C187.49 145.578 186.914 145.862 186.477 146.43C186.039 146.997 185.82 147.81 185.82 148.867ZM197.961 145.844C197.742 145.807 197.505 145.789 197.25 145.789C196.302 145.789 195.659 146.193 195.32 147V153H193.875V144.547H195.281L195.305 145.523C195.779 144.768 196.451 144.391 197.32 144.391C197.602 144.391 197.815 144.427 197.961 144.5V145.844ZM201.648 142.5V144.547H203.227V145.664H201.648V150.906C201.648 151.245 201.719 151.5 201.859 151.672C202 151.839 202.24 151.922 202.578 151.922C202.745 151.922 202.974 151.891 203.266 151.828V153C202.885 153.104 202.516 153.156 202.156 153.156C201.51 153.156 201.023 152.961 200.695 152.57C200.367 152.18 200.203 151.625 200.203 150.906V145.664H198.664V144.547H200.203V142.5H201.648ZM205.992 142.062L205.758 144.859H204.891L204.898 141H205.992V142.062ZM208.102 142.062L207.867 144.859H207L207.008 141H208.102V142.062ZM217.406 151.977C217.922 151.977 218.372 151.82 218.758 151.508C219.143 151.195 219.357 150.805 219.398 150.336H220.766C220.74 150.82 220.573 151.281 220.266 151.719C219.958 152.156 219.547 152.505 219.031 152.766C218.521 153.026 217.979 153.156 217.406 153.156C216.255 153.156 215.339 152.773 214.656 152.008C213.979 151.237 213.641 150.185 213.641 148.852V148.609C213.641 147.786 213.792 147.055 214.094 146.414C214.396 145.773 214.828 145.276 215.391 144.922C215.958 144.568 216.628 144.391 217.398 144.391C218.346 144.391 219.133 144.674 219.758 145.242C220.388 145.81 220.724 146.547 220.766 147.453H219.398C219.357 146.906 219.148 146.458 218.773 146.109C218.404 145.755 217.945 145.578 217.398 145.578C216.664 145.578 216.094 145.844 215.688 146.375C215.286 146.901 215.086 147.664 215.086 148.664V148.938C215.086 149.911 215.286 150.661 215.688 151.188C216.089 151.714 216.661 151.977 217.406 151.977ZM222.008 148.695C222.008 147.867 222.169 147.122 222.492 146.461C222.82 145.799 223.273 145.289 223.852 144.93C224.435 144.57 225.099 144.391 225.844 144.391C226.995 144.391 227.924 144.789 228.633 145.586C229.346 146.383 229.703 147.443 229.703 148.766V148.867C229.703 149.69 229.544 150.43 229.227 151.086C228.914 151.737 228.464 152.245 227.875 152.609C227.292 152.974 226.62 153.156 225.859 153.156C224.714 153.156 223.784 152.758 223.07 151.961C222.362 151.164 222.008 150.109 222.008 148.797V148.695ZM223.461 148.867C223.461 149.805 223.677 150.557 224.109 151.125C224.547 151.693 225.13 151.977 225.859 151.977C226.594 151.977 227.177 151.69 227.609 151.117C228.042 150.539 228.258 149.732 228.258 148.695C228.258 147.768 228.036 147.018 227.594 146.445C227.156 145.867 226.573 145.578 225.844 145.578C225.13 145.578 224.555 145.862 224.117 146.43C223.68 146.997 223.461 147.81 223.461 148.867ZM232.883 144.547L232.93 145.609C233.576 144.797 234.419 144.391 235.461 144.391C237.247 144.391 238.148 145.398 238.164 147.414V153H236.719V147.406C236.714 146.797 236.573 146.346 236.297 146.055C236.026 145.763 235.602 145.617 235.023 145.617C234.555 145.617 234.143 145.742 233.789 145.992C233.435 146.242 233.159 146.57 232.961 146.977V153H231.516V144.547H232.883ZM242.305 142.5V144.547H243.883V145.664H242.305V150.906C242.305 151.245 242.375 151.5 242.516 151.672C242.656 151.839 242.896 151.922 243.234 151.922C243.401 151.922 243.63 151.891 243.922 151.828V153C243.542 153.104 243.172 153.156 242.812 153.156C242.167 153.156 241.68 152.961 241.352 152.57C241.023 152.18 240.859 151.625 240.859 150.906V145.664H239.32V144.547H240.859V142.5H242.305ZM249.086 153.156C247.94 153.156 247.008 152.781 246.289 152.031C245.57 151.276 245.211 150.268 245.211 149.008V148.742C245.211 147.904 245.37 147.156 245.688 146.5C246.01 145.839 246.458 145.323 247.031 144.953C247.609 144.578 248.234 144.391 248.906 144.391C250.005 144.391 250.859 144.753 251.469 145.477C252.078 146.201 252.383 147.237 252.383 148.586V149.188H246.656C246.677 150.021 246.919 150.695 247.383 151.211C247.852 151.721 248.445 151.977 249.164 151.977C249.674 151.977 250.107 151.872 250.461 151.664C250.815 151.456 251.125 151.18 251.391 150.836L252.273 151.523C251.565 152.612 250.503 153.156 249.086 153.156ZM248.906 145.578C248.323 145.578 247.833 145.792 247.438 146.219C247.042 146.641 246.797 147.234 246.703 148H250.938V147.891C250.896 147.156 250.698 146.589 250.344 146.188C249.99 145.781 249.51 145.578 248.906 145.578ZM255.43 144.547L255.477 145.609C256.122 144.797 256.966 144.391 258.008 144.391C259.794 144.391 260.695 145.398 260.711 147.414V153H259.266V147.406C259.26 146.797 259.12 146.346 258.844 146.055C258.573 145.763 258.148 145.617 257.57 145.617C257.102 145.617 256.69 145.742 256.336 145.992C255.982 146.242 255.706 146.57 255.508 146.977V153H254.062V144.547H255.43ZM264.852 142.5V144.547H266.43V145.664H264.852V150.906C264.852 151.245 264.922 151.5 265.062 151.672C265.203 151.839 265.443 151.922 265.781 151.922C265.948 151.922 266.177 151.891 266.469 151.828V153C266.089 153.104 265.719 153.156 265.359 153.156C264.714 153.156 264.227 152.961 263.898 152.57C263.57 152.18 263.406 151.625 263.406 150.906V145.664H261.867V144.547H263.406V142.5H264.852ZM274.734 146.641H268.219V145.383H274.734V146.641ZM274.734 149.883H268.219V148.633H274.734V149.883ZM277.977 142.062L277.742 144.859H276.875L276.883 141H277.977V142.062ZM280.086 142.062L279.852 144.859H278.984L278.992 141H280.086V142.062ZM289.609 151.008L291.234 144.547H292.68L290.219 153H289.047L286.992 146.594L284.992 153H283.82L281.367 144.547H282.805L284.469 150.875L286.438 144.547H287.602L289.609 151.008ZM295.727 153H294.281V144.547H295.727V153ZM294.164 142.305C294.164 142.07 294.234 141.872 294.375 141.711C294.521 141.549 294.734 141.469 295.016 141.469C295.297 141.469 295.51 141.549 295.656 141.711C295.802 141.872 295.875 142.07 295.875 142.305C295.875 142.539 295.802 142.734 295.656 142.891C295.51 143.047 295.297 143.125 295.016 143.125C294.734 143.125 294.521 143.047 294.375 142.891C294.234 142.734 294.164 142.539 294.164 142.305ZM297.695 148.703C297.695 147.406 298.003 146.365 298.617 145.578C299.232 144.786 300.036 144.391 301.031 144.391C302.021 144.391 302.805 144.729 303.383 145.406V141H304.828V153H303.5L303.43 152.094C302.852 152.802 302.047 153.156 301.016 153.156C300.036 153.156 299.237 152.755 298.617 151.953C298.003 151.151 297.695 150.104 297.695 148.812V148.703ZM299.141 148.867C299.141 149.826 299.339 150.576 299.734 151.117C300.13 151.659 300.677 151.93 301.375 151.93C302.292 151.93 302.961 151.518 303.383 150.695V146.812C302.951 146.016 302.286 145.617 301.391 145.617C300.682 145.617 300.13 145.891 299.734 146.438C299.339 146.984 299.141 147.794 299.141 148.867ZM309.039 142.5V144.547H310.617V145.664H309.039V150.906C309.039 151.245 309.109 151.5 309.25 151.672C309.391 151.839 309.63 151.922 309.969 151.922C310.135 151.922 310.365 151.891 310.656 151.828V153C310.276 153.104 309.906 153.156 309.547 153.156C308.901 153.156 308.414 152.961 308.086 152.57C307.758 152.18 307.594 151.625 307.594 150.906V145.664H306.055V144.547H307.594V142.5H309.039ZM313.758 145.57C314.398 144.784 315.232 144.391 316.258 144.391C318.044 144.391 318.945 145.398 318.961 147.414V153H317.516V147.406C317.51 146.797 317.37 146.346 317.094 146.055C316.823 145.763 316.398 145.617 315.82 145.617C315.352 145.617 314.94 145.742 314.586 145.992C314.232 146.242 313.956 146.57 313.758 146.977V153H312.312V141H313.758V145.57ZM327.734 146.641H321.219V145.383H327.734V146.641ZM327.734 149.883H321.219V148.633H327.734V149.883ZM329.555 148.703C329.555 147.406 329.862 146.365 330.477 145.578C331.091 144.786 331.896 144.391 332.891 144.391C333.88 144.391 334.664 144.729 335.242 145.406V141H336.688V153H335.359L335.289 152.094C334.711 152.802 333.906 153.156 332.875 153.156C331.896 153.156 331.096 152.755 330.477 151.953C329.862 151.151 329.555 150.104 329.555 148.812V148.703ZM331 148.867C331 149.826 331.198 150.576 331.594 151.117C331.99 151.659 332.536 151.93 333.234 151.93C334.151 151.93 334.82 151.518 335.242 150.695V146.812C334.81 146.016 334.146 145.617 333.25 145.617C332.542 145.617 331.99 145.891 331.594 146.438C331.198 146.984 331 147.794 331 148.867ZM342.445 153.156C341.299 153.156 340.367 152.781 339.648 152.031C338.93 151.276 338.57 150.268 338.57 149.008V148.742C338.57 147.904 338.729 147.156 339.047 146.5C339.37 145.839 339.818 145.323 340.391 144.953C340.969 144.578 341.594 144.391 342.266 144.391C343.365 144.391 344.219 144.753 344.828 145.477C345.438 146.201 345.742 147.237 345.742 148.586V149.188H340.016C340.036 150.021 340.279 150.695 340.742 151.211C341.211 151.721 341.805 151.977 342.523 151.977C343.034 151.977 343.466 151.872 343.82 151.664C344.174 151.456 344.484 151.18 344.75 150.836L345.633 151.523C344.924 152.612 343.862 153.156 342.445 153.156ZM342.266 145.578C341.682 145.578 341.193 145.792 340.797 146.219C340.401 146.641 340.156 147.234 340.062 148H344.297V147.891C344.255 147.156 344.057 146.589 343.703 146.188C343.349 145.781 342.87 145.578 342.266 145.578ZM350.102 151.039L352.195 144.547H353.672L350.641 153H349.539L346.477 144.547H347.953L350.102 151.039ZM356.633 153H355.188V144.547H356.633V153ZM355.07 142.305C355.07 142.07 355.141 141.872 355.281 141.711C355.427 141.549 355.641 141.469 355.922 141.469C356.203 141.469 356.417 141.549 356.562 141.711C356.708 141.872 356.781 142.07 356.781 142.305C356.781 142.539 356.708 142.734 356.562 142.891C356.417 143.047 356.203 143.125 355.922 143.125C355.641 143.125 355.427 143.047 355.281 142.891C355.141 142.734 355.07 142.539 355.07 142.305ZM362.344 151.977C362.859 151.977 363.31 151.82 363.695 151.508C364.081 151.195 364.294 150.805 364.336 150.336H365.703C365.677 150.82 365.51 151.281 365.203 151.719C364.896 152.156 364.484 152.505 363.969 152.766C363.458 153.026 362.917 153.156 362.344 153.156C361.193 153.156 360.276 152.773 359.594 152.008C358.917 151.237 358.578 150.185 358.578 148.852V148.609C358.578 147.786 358.729 147.055 359.031 146.414C359.333 145.773 359.766 145.276 360.328 144.922C360.896 144.568 361.565 144.391 362.336 144.391C363.284 144.391 364.07 144.674 364.695 145.242C365.326 145.81 365.661 146.547 365.703 147.453H364.336C364.294 146.906 364.086 146.458 363.711 146.109C363.341 145.755 362.883 145.578 362.336 145.578C361.602 145.578 361.031 145.844 360.625 146.375C360.224 146.901 360.023 147.664 360.023 148.664V148.938C360.023 149.911 360.224 150.661 360.625 151.188C361.026 151.714 361.599 151.977 362.344 151.977ZM370.836 153.156C369.69 153.156 368.758 152.781 368.039 152.031C367.32 151.276 366.961 150.268 366.961 149.008V148.742C366.961 147.904 367.12 147.156 367.438 146.5C367.76 145.839 368.208 145.323 368.781 144.953C369.359 144.578 369.984 144.391 370.656 144.391C371.755 144.391 372.609 144.753 373.219 145.477C373.828 146.201 374.133 147.237 374.133 148.586V149.188H368.406C368.427 150.021 368.669 150.695 369.133 151.211C369.602 151.721 370.195 151.977 370.914 151.977C371.424 151.977 371.857 151.872 372.211 151.664C372.565 151.456 372.875 151.18 373.141 150.836L374.023 151.523C373.315 152.612 372.253 153.156 370.836 153.156ZM370.656 145.578C370.073 145.578 369.583 145.792 369.188 146.219C368.792 146.641 368.547 147.234 368.453 148H372.688V147.891C372.646 147.156 372.448 146.589 372.094 146.188C371.74 145.781 371.26 145.578 370.656 145.578ZM378.82 148.758H375.008V147.578H378.82V148.758ZM387.719 151.008L389.344 144.547H390.789L388.328 153H387.156L385.102 146.594L383.102 153H381.93L379.477 144.547H380.914L382.578 150.875L384.547 144.547H385.711L387.719 151.008ZM393.836 153H392.391V144.547H393.836V153ZM392.273 142.305C392.273 142.07 392.344 141.872 392.484 141.711C392.63 141.549 392.844 141.469 393.125 141.469C393.406 141.469 393.62 141.549 393.766 141.711C393.911 141.872 393.984 142.07 393.984 142.305C393.984 142.539 393.911 142.734 393.766 142.891C393.62 143.047 393.406 143.125 393.125 143.125C392.844 143.125 392.63 143.047 392.484 142.891C392.344 142.734 392.273 142.539 392.273 142.305ZM395.805 148.703C395.805 147.406 396.112 146.365 396.727 145.578C397.341 144.786 398.146 144.391 399.141 144.391C400.13 144.391 400.914 144.729 401.492 145.406V141H402.938V153H401.609L401.539 152.094C400.961 152.802 400.156 153.156 399.125 153.156C398.146 153.156 397.346 152.755 396.727 151.953C396.112 151.151 395.805 150.104 395.805 148.812V148.703ZM397.25 148.867C397.25 149.826 397.448 150.576 397.844 151.117C398.24 151.659 398.786 151.93 399.484 151.93C400.401 151.93 401.07 151.518 401.492 150.695V146.812C401.06 146.016 400.396 145.617 399.5 145.617C398.792 145.617 398.24 145.891 397.844 146.438C397.448 146.984 397.25 147.794 397.25 148.867ZM407.148 142.5V144.547H408.727V145.664H407.148V150.906C407.148 151.245 407.219 151.5 407.359 151.672C407.5 151.839 407.74 151.922 408.078 151.922C408.245 151.922 408.474 151.891 408.766 151.828V153C408.385 153.104 408.016 153.156 407.656 153.156C407.01 153.156 406.523 152.961 406.195 152.57C405.867 152.18 405.703 151.625 405.703 150.906V145.664H404.164V144.547H405.703V142.5H407.148ZM411.867 145.57C412.508 144.784 413.341 144.391 414.367 144.391C416.154 144.391 417.055 145.398 417.07 147.414V153H415.625V147.406C415.62 146.797 415.479 146.346 415.203 146.055C414.932 145.763 414.508 145.617 413.93 145.617C413.461 145.617 413.049 145.742 412.695 145.992C412.341 146.242 412.065 146.57 411.867 146.977V153H410.422V141H411.867V145.57ZM419.188 155.266L418.367 154.703C418.857 154.021 419.112 153.318 419.133 152.594V151.289H420.547V152.422C420.547 152.948 420.417 153.474 420.156 154C419.901 154.526 419.578 154.948 419.188 155.266ZM427.914 153H426.469V144.547H427.914V153ZM426.352 142.305C426.352 142.07 426.422 141.872 426.562 141.711C426.708 141.549 426.922 141.469 427.203 141.469C427.484 141.469 427.698 141.549 427.844 141.711C427.99 141.872 428.062 142.07 428.062 142.305C428.062 142.539 427.99 142.734 427.844 142.891C427.698 143.047 427.484 143.125 427.203 143.125C426.922 143.125 426.708 143.047 426.562 142.891C426.422 142.734 426.352 142.539 426.352 142.305ZM431.602 144.547L431.648 145.609C432.294 144.797 433.138 144.391 434.18 144.391C435.966 144.391 436.867 145.398 436.883 147.414V153H435.438V147.406C435.432 146.797 435.292 146.346 435.016 146.055C434.745 145.763 434.32 145.617 433.742 145.617C433.273 145.617 432.862 145.742 432.508 145.992C432.154 146.242 431.878 146.57 431.68 146.977V153H430.234V144.547H431.602ZM440.633 153H439.188V144.547H440.633V153ZM439.07 142.305C439.07 142.07 439.141 141.872 439.281 141.711C439.427 141.549 439.641 141.469 439.922 141.469C440.203 141.469 440.417 141.549 440.562 141.711C440.708 141.872 440.781 142.07 440.781 142.305C440.781 142.539 440.708 142.734 440.562 142.891C440.417 143.047 440.203 143.125 439.922 143.125C439.641 143.125 439.427 143.047 439.281 142.891C439.141 142.734 439.07 142.539 439.07 142.305ZM444.914 142.5V144.547H446.492V145.664H444.914V150.906C444.914 151.245 444.984 151.5 445.125 151.672C445.266 151.839 445.505 151.922 445.844 151.922C446.01 151.922 446.24 151.891 446.531 151.828V153C446.151 153.104 445.781 153.156 445.422 153.156C444.776 153.156 444.289 152.961 443.961 152.57C443.633 152.18 443.469 151.625 443.469 150.906V145.664H441.93V144.547H443.469V142.5H444.914ZM449.758 153H448.312V144.547H449.758V153ZM448.195 142.305C448.195 142.07 448.266 141.872 448.406 141.711C448.552 141.549 448.766 141.469 449.047 141.469C449.328 141.469 449.542 141.549 449.688 141.711C449.833 141.872 449.906 142.07 449.906 142.305C449.906 142.539 449.833 142.734 449.688 142.891C449.542 143.047 449.328 143.125 449.047 143.125C448.766 143.125 448.552 143.047 448.406 142.891C448.266 142.734 448.195 142.539 448.195 142.305ZM457.297 153C457.214 152.833 457.146 152.536 457.094 152.109C456.422 152.807 455.62 153.156 454.688 153.156C453.854 153.156 453.169 152.922 452.633 152.453C452.102 151.979 451.836 151.38 451.836 150.656C451.836 149.776 452.169 149.094 452.836 148.609C453.508 148.12 454.451 147.875 455.664 147.875H457.07V147.211C457.07 146.706 456.919 146.305 456.617 146.008C456.315 145.706 455.87 145.555 455.281 145.555C454.766 145.555 454.333 145.685 453.984 145.945C453.635 146.206 453.461 146.521 453.461 146.891H452.008C452.008 146.469 452.156 146.062 452.453 145.672C452.755 145.276 453.161 144.964 453.672 144.734C454.188 144.505 454.753 144.391 455.367 144.391C456.341 144.391 457.104 144.635 457.656 145.125C458.208 145.609 458.495 146.279 458.516 147.133V151.023C458.516 151.799 458.615 152.417 458.812 152.875V153H457.297ZM454.898 151.898C455.352 151.898 455.781 151.781 456.188 151.547C456.594 151.312 456.888 151.008 457.07 150.633V148.898H455.938C454.167 148.898 453.281 149.417 453.281 150.453C453.281 150.906 453.432 151.26 453.734 151.516C454.036 151.771 454.424 151.898 454.898 151.898ZM462.352 153H460.906V141H462.352V153ZM467.68 148.758H463.867V147.578H467.68V148.758ZM474.016 150.758C474.016 150.367 473.867 150.065 473.57 149.852C473.279 149.633 472.766 149.445 472.031 149.289C471.302 149.133 470.721 148.945 470.289 148.727C469.862 148.508 469.544 148.247 469.336 147.945C469.133 147.643 469.031 147.284 469.031 146.867C469.031 146.174 469.323 145.589 469.906 145.109C470.495 144.63 471.245 144.391 472.156 144.391C473.115 144.391 473.891 144.638 474.484 145.133C475.083 145.628 475.383 146.26 475.383 147.031H473.93C473.93 146.635 473.76 146.294 473.422 146.008C473.089 145.721 472.667 145.578 472.156 145.578C471.63 145.578 471.219 145.693 470.922 145.922C470.625 146.151 470.477 146.451 470.477 146.82C470.477 147.169 470.615 147.432 470.891 147.609C471.167 147.786 471.664 147.956 472.383 148.117C473.107 148.279 473.693 148.471 474.141 148.695C474.589 148.919 474.919 149.19 475.133 149.508C475.352 149.82 475.461 150.203 475.461 150.656C475.461 151.411 475.159 152.018 474.555 152.477C473.951 152.93 473.167 153.156 472.203 153.156C471.526 153.156 470.927 153.036 470.406 152.797C469.885 152.557 469.477 152.224 469.18 151.797C468.888 151.365 468.742 150.898 468.742 150.398H470.188C470.214 150.883 470.406 151.268 470.766 151.555C471.13 151.836 471.609 151.977 472.203 151.977C472.75 151.977 473.188 151.867 473.516 151.648C473.849 151.424 474.016 151.128 474.016 150.758ZM480.734 151.977C481.25 151.977 481.701 151.82 482.086 151.508C482.471 151.195 482.685 150.805 482.727 150.336H484.094C484.068 150.82 483.901 151.281 483.594 151.719C483.286 152.156 482.875 152.505 482.359 152.766C481.849 153.026 481.307 153.156 480.734 153.156C479.583 153.156 478.667 152.773 477.984 152.008C477.307 151.237 476.969 150.185 476.969 148.852V148.609C476.969 147.786 477.12 147.055 477.422 146.414C477.724 145.773 478.156 145.276 478.719 144.922C479.286 144.568 479.956 144.391 480.727 144.391C481.674 144.391 482.461 144.674 483.086 145.242C483.716 145.81 484.052 146.547 484.094 147.453H482.727C482.685 146.906 482.477 146.458 482.102 146.109C481.732 145.755 481.273 145.578 480.727 145.578C479.992 145.578 479.422 145.844 479.016 146.375C478.615 146.901 478.414 147.664 478.414 148.664V148.938C478.414 149.911 478.615 150.661 479.016 151.188C479.417 151.714 479.99 151.977 480.734 151.977ZM490.938 153C490.854 152.833 490.786 152.536 490.734 152.109C490.062 152.807 489.26 153.156 488.328 153.156C487.495 153.156 486.81 152.922 486.273 152.453C485.742 151.979 485.477 151.38 485.477 150.656C485.477 149.776 485.81 149.094 486.477 148.609C487.148 148.12 488.091 147.875 489.305 147.875H490.711V147.211C490.711 146.706 490.56 146.305 490.258 146.008C489.956 145.706 489.51 145.555 488.922 145.555C488.406 145.555 487.974 145.685 487.625 145.945C487.276 146.206 487.102 146.521 487.102 146.891H485.648C485.648 146.469 485.797 146.062 486.094 145.672C486.396 145.276 486.802 144.964 487.312 144.734C487.828 144.505 488.393 144.391 489.008 144.391C489.982 144.391 490.745 144.635 491.297 145.125C491.849 145.609 492.135 146.279 492.156 147.133V151.023C492.156 151.799 492.255 152.417 492.453 152.875V153H490.938ZM488.539 151.898C488.992 151.898 489.422 151.781 489.828 151.547C490.234 151.312 490.529 151.008 490.711 150.633V148.898H489.578C487.807 148.898 486.922 149.417 486.922 150.453C486.922 150.906 487.073 151.26 487.375 151.516C487.677 151.771 488.065 151.898 488.539 151.898ZM495.992 153H494.547V141H495.992V153ZM501.82 153.156C500.674 153.156 499.742 152.781 499.023 152.031C498.305 151.276 497.945 150.268 497.945 149.008V148.742C497.945 147.904 498.104 147.156 498.422 146.5C498.745 145.839 499.193 145.323 499.766 144.953C500.344 144.578 500.969 144.391 501.641 144.391C502.74 144.391 503.594 144.753 504.203 145.477C504.812 146.201 505.117 147.237 505.117 148.586V149.188H499.391C499.411 150.021 499.654 150.695 500.117 151.211C500.586 151.721 501.18 151.977 501.898 151.977C502.409 151.977 502.841 151.872 503.195 151.664C503.549 151.456 503.859 151.18 504.125 150.836L505.008 151.523C504.299 152.612 503.237 153.156 501.82 153.156ZM501.641 145.578C501.057 145.578 500.568 145.792 500.172 146.219C499.776 146.641 499.531 147.234 499.438 148H503.672V147.891C503.63 147.156 503.432 146.589 503.078 146.188C502.724 145.781 502.245 145.578 501.641 145.578ZM513.406 146.641H506.891V145.383H513.406V146.641ZM513.406 149.883H506.891V148.633H513.406V149.883ZM520.18 153H518.727V143.367L515.812 144.438V143.125L519.953 141.57H520.18V153ZM524.594 152.242C524.594 151.992 524.667 151.784 524.812 151.617C524.964 151.451 525.188 151.367 525.484 151.367C525.781 151.367 526.005 151.451 526.156 151.617C526.312 151.784 526.391 151.992 526.391 152.242C526.391 152.482 526.312 152.682 526.156 152.844C526.005 153.005 525.781 153.086 525.484 153.086C525.188 153.086 524.964 153.005 524.812 152.844C524.667 152.682 524.594 152.482 524.594 152.242ZM535.766 148.148C535.766 149.841 535.477 151.099 534.898 151.922C534.32 152.745 533.417 153.156 532.188 153.156C530.974 153.156 530.076 152.755 529.492 151.953C528.909 151.146 528.607 149.943 528.586 148.344V146.414C528.586 144.742 528.875 143.5 529.453 142.688C530.031 141.875 530.938 141.469 532.172 141.469C533.396 141.469 534.297 141.862 534.875 142.648C535.453 143.43 535.75 144.638 535.766 146.273V148.148ZM534.32 146.172C534.32 144.948 534.148 144.057 533.805 143.5C533.461 142.938 532.917 142.656 532.172 142.656C531.432 142.656 530.893 142.935 530.555 143.492C530.216 144.049 530.042 144.906 530.031 146.062V148.375C530.031 149.604 530.208 150.513 530.562 151.102C530.922 151.685 531.464 151.977 532.188 151.977C532.901 151.977 533.43 151.701 533.773 151.148C534.122 150.596 534.305 149.727 534.32 148.539V146.172ZM538.836 142.062L538.602 144.859H537.734L537.742 141H538.836V142.062ZM540.945 142.062L540.711 144.859H539.844L539.852 141H540.945V142.062ZM548.008 147.922L542.844 145.898V144.414L549.516 147.367V148.508L542.844 151.469V149.969L548.008 147.922ZM42.0625 171.969L46.9531 173.945V175.477L40.5625 172.516V171.375L46.9531 168.422V169.953L42.0625 171.969ZM51.1953 166.5V168.547H52.7734V169.664H51.1953V174.906C51.1953 175.245 51.2656 175.5 51.4062 175.672C51.5469 175.839 51.7865 175.922 52.125 175.922C52.2917 175.922 52.5208 175.891 52.8125 175.828V177C52.4323 177.104 52.0625 177.156 51.7031 177.156C51.0573 177.156 50.5703 176.961 50.2422 176.57C49.9141 176.18 49.75 175.625 49.75 174.906V169.664H48.2109V168.547H49.75V166.5H51.1953ZM56.0391 177H54.5938V168.547H56.0391V177ZM54.4766 166.305C54.4766 166.07 54.5469 165.872 54.6875 165.711C54.8333 165.549 55.0469 165.469 55.3281 165.469C55.6094 165.469 55.8229 165.549 55.9688 165.711C56.1146 165.872 56.1875 166.07 56.1875 166.305C56.1875 166.539 56.1146 166.734 55.9688 166.891C55.8229 167.047 55.6094 167.125 55.3281 167.125C55.0469 167.125 54.8333 167.047 54.6875 166.891C54.5469 166.734 54.4766 166.539 54.4766 166.305ZM60.3203 166.5V168.547H61.8984V169.664H60.3203V174.906C60.3203 175.245 60.3906 175.5 60.5312 175.672C60.6719 175.839 60.9115 175.922 61.25 175.922C61.4167 175.922 61.6458 175.891 61.9375 175.828V177C61.5573 177.104 61.1875 177.156 60.8281 177.156C60.1823 177.156 59.6953 176.961 59.3672 176.57C59.0391 176.18 58.875 175.625 58.875 174.906V169.664H57.3359V168.547H58.875V166.5H60.3203ZM65.1641 177H63.7188V165H65.1641V177ZM70.9922 177.156C69.8464 177.156 68.9141 176.781 68.1953 176.031C67.4766 175.276 67.1172 174.268 67.1172 173.008V172.742C67.1172 171.904 67.276 171.156 67.5938 170.5C67.9167 169.839 68.3646 169.323 68.9375 168.953C69.5156 168.578 70.1406 168.391 70.8125 168.391C71.9115 168.391 72.7656 168.753 73.375 169.477C73.9844 170.201 74.2891 171.237 74.2891 172.586V173.188H68.5625C68.5833 174.021 68.8255 174.695 69.2891 175.211C69.7578 175.721 70.3516 175.977 71.0703 175.977C71.5807 175.977 72.013 175.872 72.3672 175.664C72.7214 175.456 73.0312 175.18 73.2969 174.836L74.1797 175.523C73.4714 176.612 72.4089 177.156 70.9922 177.156ZM70.8125 169.578C70.2292 169.578 69.7396 169.792 69.3438 170.219C68.9479 170.641 68.7031 171.234 68.6094 172H72.8438V171.891C72.8021 171.156 72.6042 170.589 72.25 170.188C71.8958 169.781 71.4167 169.578 70.8125 169.578ZM81.0859 171.922L75.9219 169.898V168.414L82.5938 171.367V172.508L75.9219 175.469V173.969L81.0859 171.922ZM84.5547 177V165.625H87.7656C88.7552 165.625 89.6302 165.844 90.3906 166.281C91.151 166.719 91.737 167.341 92.1484 168.148C92.5651 168.956 92.776 169.883 92.7812 170.93V171.656C92.7812 172.729 92.5729 173.669 92.1562 174.477C91.7448 175.284 91.1536 175.904 90.3828 176.336C89.6172 176.768 88.724 176.99 87.7031 177H84.5547ZM86.0547 166.859V175.773H87.6328C88.7891 175.773 89.6875 175.414 90.3281 174.695C90.974 173.977 91.2969 172.953 91.2969 171.625V170.961C91.2969 169.669 90.9922 168.667 90.3828 167.953C89.7786 167.234 88.9193 166.87 87.8047 166.859H86.0547ZM94.4453 172.695C94.4453 171.867 94.6068 171.122 94.9297 170.461C95.2578 169.799 95.7109 169.289 96.2891 168.93C96.8724 168.57 97.5365 168.391 98.2812 168.391C99.4323 168.391 100.362 168.789 101.07 169.586C101.784 170.383 102.141 171.443 102.141 172.766V172.867C102.141 173.69 101.982 174.43 101.664 175.086C101.352 175.737 100.901 176.245 100.312 176.609C99.7292 176.974 99.0573 177.156 98.2969 177.156C97.151 177.156 96.2214 176.758 95.5078 175.961C94.7995 175.164 94.4453 174.109 94.4453 172.797V172.695ZM95.8984 172.867C95.8984 173.805 96.1146 174.557 96.5469 175.125C96.9844 175.693 97.5677 175.977 98.2969 175.977C99.0312 175.977 99.6146 175.69 100.047 175.117C100.479 174.539 100.695 173.732 100.695 172.695C100.695 171.768 100.474 171.018 100.031 170.445C99.5938 169.867 99.0104 169.578 98.2812 169.578C97.5677 169.578 96.9922 169.862 96.5547 170.43C96.1172 170.997 95.8984 171.81 95.8984 172.867ZM107.344 175.977C107.859 175.977 108.31 175.82 108.695 175.508C109.081 175.195 109.294 174.805 109.336 174.336H110.703C110.677 174.82 110.51 175.281 110.203 175.719C109.896 176.156 109.484 176.505 108.969 176.766C108.458 177.026 107.917 177.156 107.344 177.156C106.193 177.156 105.276 176.773 104.594 176.008C103.917 175.237 103.578 174.185 103.578 172.852V172.609C103.578 171.786 103.729 171.055 104.031 170.414C104.333 169.773 104.766 169.276 105.328 168.922C105.896 168.568 106.565 168.391 107.336 168.391C108.284 168.391 109.07 168.674 109.695 169.242C110.326 169.81 110.661 170.547 110.703 171.453H109.336C109.294 170.906 109.086 170.458 108.711 170.109C108.341 169.755 107.883 169.578 107.336 169.578C106.602 169.578 106.031 169.844 105.625 170.375C105.224 170.901 105.023 171.664 105.023 172.664V172.938C105.023 173.911 105.224 174.661 105.625 175.188C106.026 175.714 106.599 175.977 107.344 175.977ZM117.547 176.164C116.984 176.826 116.159 177.156 115.07 177.156C114.169 177.156 113.482 176.896 113.008 176.375C112.539 175.849 112.302 175.073 112.297 174.047V168.547H113.742V174.008C113.742 175.289 114.263 175.93 115.305 175.93C116.409 175.93 117.143 175.518 117.508 174.695V168.547H118.953V177H117.578L117.547 176.164ZM122.516 168.547L122.555 169.484C123.174 168.755 124.01 168.391 125.062 168.391C126.245 168.391 127.049 168.844 127.477 169.75C127.758 169.344 128.122 169.016 128.57 168.766C129.023 168.516 129.557 168.391 130.172 168.391C132.026 168.391 132.969 169.372 133 171.336V177H131.555V171.422C131.555 170.818 131.417 170.367 131.141 170.07C130.865 169.768 130.401 169.617 129.75 169.617C129.214 169.617 128.768 169.779 128.414 170.102C128.06 170.419 127.854 170.849 127.797 171.391V177H126.344V171.461C126.344 170.232 125.742 169.617 124.539 169.617C123.591 169.617 122.943 170.021 122.594 170.828V177H121.148V168.547H122.516ZM138.695 177.156C137.549 177.156 136.617 176.781 135.898 176.031C135.18 175.276 134.82 174.268 134.82 173.008V172.742C134.82 171.904 134.979 171.156 135.297 170.5C135.62 169.839 136.068 169.323 136.641 168.953C137.219 168.578 137.844 168.391 138.516 168.391C139.615 168.391 140.469 168.753 141.078 169.477C141.688 170.201 141.992 171.237 141.992 172.586V173.188H136.266C136.286 174.021 136.529 174.695 136.992 175.211C137.461 175.721 138.055 175.977 138.773 175.977C139.284 175.977 139.716 175.872 140.07 175.664C140.424 175.456 140.734 175.18 141 174.836L141.883 175.523C141.174 176.612 140.112 177.156 138.695 177.156ZM138.516 169.578C137.932 169.578 137.443 169.792 137.047 170.219C136.651 170.641 136.406 171.234 136.312 172H140.547V171.891C140.505 171.156 140.307 170.589 139.953 170.188C139.599 169.781 139.12 169.578 138.516 169.578ZM145.039 168.547L145.086 169.609C145.732 168.797 146.576 168.391 147.617 168.391C149.404 168.391 150.305 169.398 150.32 171.414V177H148.875V171.406C148.87 170.797 148.729 170.346 148.453 170.055C148.182 169.763 147.758 169.617 147.18 169.617C146.711 169.617 146.299 169.742 145.945 169.992C145.591 170.242 145.315 170.57 145.117 170.977V177H143.672V168.547H145.039ZM154.461 166.5V168.547H156.039V169.664H154.461V174.906C154.461 175.245 154.531 175.5 154.672 175.672C154.812 175.839 155.052 175.922 155.391 175.922C155.557 175.922 155.786 175.891 156.078 175.828V177C155.698 177.104 155.328 177.156 154.969 177.156C154.323 177.156 153.836 176.961 153.508 176.57C153.18 176.18 153.016 175.625 153.016 174.906V169.664H151.477V168.547H153.016V166.5H154.461ZM158.703 171.969L163.594 173.945V175.477L157.203 172.516V171.375L163.594 168.422V169.953L158.703 171.969ZM166.164 177.977H164.922L169.672 165.625H170.906L166.164 177.977ZM174.43 166.5V168.547H176.008V169.664H174.43V174.906C174.43 175.245 174.5 175.5 174.641 175.672C174.781 175.839 175.021 175.922 175.359 175.922C175.526 175.922 175.755 175.891 176.047 175.828V177C175.667 177.104 175.297 177.156 174.938 177.156C174.292 177.156 173.805 176.961 173.477 176.57C173.148 176.18 172.984 175.625 172.984 174.906V169.664H171.445V168.547H172.984V166.5H174.43ZM179.273 177H177.828V168.547H179.273V177ZM177.711 166.305C177.711 166.07 177.781 165.872 177.922 165.711C178.068 165.549 178.281 165.469 178.562 165.469C178.844 165.469 179.057 165.549 179.203 165.711C179.349 165.872 179.422 166.07 179.422 166.305C179.422 166.539 179.349 166.734 179.203 166.891C179.057 167.047 178.844 167.125 178.562 167.125C178.281 167.125 178.068 167.047 177.922 166.891C177.781 166.734 177.711 166.539 177.711 166.305ZM183.555 166.5V168.547H185.133V169.664H183.555V174.906C183.555 175.245 183.625 175.5 183.766 175.672C183.906 175.839 184.146 175.922 184.484 175.922C184.651 175.922 184.88 175.891 185.172 175.828V177C184.792 177.104 184.422 177.156 184.062 177.156C183.417 177.156 182.93 176.961 182.602 176.57C182.273 176.18 182.109 175.625 182.109 174.906V169.664H180.57V168.547H182.109V166.5H183.555ZM188.398 177H186.953V165H188.398V177ZM194.227 177.156C193.081 177.156 192.148 176.781 191.43 176.031C190.711 175.276 190.352 174.268 190.352 173.008V172.742C190.352 171.904 190.51 171.156 190.828 170.5C191.151 169.839 191.599 169.323 192.172 168.953C192.75 168.578 193.375 168.391 194.047 168.391C195.146 168.391 196 168.753 196.609 169.477C197.219 170.201 197.523 171.237 197.523 172.586V173.188H191.797C191.818 174.021 192.06 174.695 192.523 175.211C192.992 175.721 193.586 175.977 194.305 175.977C194.815 175.977 195.247 175.872 195.602 175.664C195.956 175.456 196.266 175.18 196.531 174.836L197.414 175.523C196.706 176.612 195.643 177.156 194.227 177.156ZM194.047 169.578C193.464 169.578 192.974 169.792 192.578 170.219C192.182 170.641 191.938 171.234 191.844 172H196.078V171.891C196.036 171.156 195.839 170.589 195.484 170.188C195.13 169.781 194.651 169.578 194.047 169.578ZM204.32 171.922L199.156 169.898V168.414L205.828 171.367V172.508L199.156 175.469V173.969L204.32 171.922ZM42.0625 195.969L46.9531 197.945V199.477L40.5625 196.516V195.375L46.9531 192.422V193.953L42.0625 195.969ZM49.5234 201.977H48.2812L53.0312 189.625H54.2656L49.5234 201.977ZM57.2734 193.57C57.9141 192.784 58.7474 192.391 59.7734 192.391C61.5599 192.391 62.4609 193.398 62.4766 195.414V201H61.0312V195.406C61.026 194.797 60.8854 194.346 60.6094 194.055C60.3385 193.763 59.9141 193.617 59.3359 193.617C58.8672 193.617 58.4557 193.742 58.1016 193.992C57.7474 194.242 57.4714 194.57 57.2734 194.977V201H55.8281V189H57.2734V193.57ZM68.1484 201.156C67.0026 201.156 66.0703 200.781 65.3516 200.031C64.6328 199.276 64.2734 198.268 64.2734 197.008V196.742C64.2734 195.904 64.4323 195.156 64.75 194.5C65.0729 193.839 65.5208 193.323 66.0938 192.953C66.6719 192.578 67.2969 192.391 67.9688 192.391C69.0677 192.391 69.9219 192.753 70.5312 193.477C71.1406 194.201 71.4453 195.237 71.4453 196.586V197.188H65.7188C65.7396 198.021 65.9818 198.695 66.4453 199.211C66.9141 199.721 67.5078 199.977 68.2266 199.977C68.737 199.977 69.1693 199.872 69.5234 199.664C69.8776 199.456 70.1875 199.18 70.4531 198.836L71.3359 199.523C70.6276 200.612 69.5651 201.156 68.1484 201.156ZM67.9688 193.578C67.3854 193.578 66.8958 193.792 66.5 194.219C66.1042 194.641 65.8594 195.234 65.7656 196H70V195.891C69.9583 195.156 69.7604 194.589 69.4062 194.188C69.0521 193.781 68.5729 193.578 67.9688 193.578ZM78.3438 201C78.2604 200.833 78.1927 200.536 78.1406 200.109C77.4688 200.807 76.6667 201.156 75.7344 201.156C74.901 201.156 74.2161 200.922 73.6797 200.453C73.1484 199.979 72.8828 199.38 72.8828 198.656C72.8828 197.776 73.2161 197.094 73.8828 196.609C74.5547 196.12 75.4974 195.875 76.7109 195.875H78.1172V195.211C78.1172 194.706 77.9661 194.305 77.6641 194.008C77.362 193.706 76.9167 193.555 76.3281 193.555C75.8125 193.555 75.3802 193.685 75.0312 193.945C74.6823 194.206 74.5078 194.521 74.5078 194.891H73.0547C73.0547 194.469 73.2031 194.062 73.5 193.672C73.8021 193.276 74.2083 192.964 74.7188 192.734C75.2344 192.505 75.7995 192.391 76.4141 192.391C77.388 192.391 78.151 192.635 78.7031 193.125C79.2552 193.609 79.5417 194.279 79.5625 195.133V199.023C79.5625 199.799 79.6615 200.417 79.8594 200.875V201H78.3438ZM75.9453 199.898C76.3984 199.898 76.8281 199.781 77.2344 199.547C77.6406 199.312 77.9349 199.008 78.1172 198.633V196.898H76.9844C75.2135 196.898 74.3281 197.417 74.3281 198.453C74.3281 198.906 74.4792 199.26 74.7812 199.516C75.0833 199.771 75.4714 199.898 75.9453 199.898ZM81.4766 196.703C81.4766 195.406 81.7839 194.365 82.3984 193.578C83.013 192.786 83.8177 192.391 84.8125 192.391C85.8021 192.391 86.5859 192.729 87.1641 193.406V189H88.6094V201H87.2812L87.2109 200.094C86.6328 200.802 85.8281 201.156 84.7969 201.156C83.8177 201.156 83.0182 200.755 82.3984 199.953C81.7839 199.151 81.4766 198.104 81.4766 196.812V196.703ZM82.9219 196.867C82.9219 197.826 83.1198 198.576 83.5156 199.117C83.9115 199.659 84.4583 199.93 85.1562 199.93C86.0729 199.93 86.7422 199.518 87.1641 198.695V194.812C86.7318 194.016 86.0677 193.617 85.1719 193.617C84.4635 193.617 83.9115 193.891 83.5156 194.438C83.1198 194.984 82.9219 195.794 82.9219 196.867ZM95.9766 195.922L90.8125 193.898V192.414L97.4844 195.367V196.508L90.8125 199.469V197.969L95.9766 195.922ZM42.0625 219.969L46.9531 221.945V223.477L40.5625 220.516V219.375L46.9531 216.422V217.953L42.0625 219.969ZM56.3906 220.867C56.3906 222.159 56.0938 223.198 55.5 223.984C54.9062 224.766 54.1094 225.156 53.1094 225.156C52.0417 225.156 51.2161 224.779 50.6328 224.023L50.5625 225H49.2344V213H50.6797V217.477C51.263 216.753 52.0677 216.391 53.0938 216.391C54.1198 216.391 54.9245 216.779 55.5078 217.555C56.0964 218.331 56.3906 219.393 56.3906 220.742V220.867ZM54.9453 220.703C54.9453 219.719 54.7552 218.958 54.375 218.422C53.9948 217.885 53.4479 217.617 52.7344 217.617C51.7812 217.617 51.0964 218.06 50.6797 218.945V222.602C51.1224 223.487 51.8125 223.93 52.75 223.93C53.4427 223.93 53.9818 223.661 54.3672 223.125C54.7526 222.589 54.9453 221.781 54.9453 220.703ZM57.8359 220.695C57.8359 219.867 57.9974 219.122 58.3203 218.461C58.6484 217.799 59.1016 217.289 59.6797 216.93C60.263 216.57 60.9271 216.391 61.6719 216.391C62.8229 216.391 63.7526 216.789 64.4609 217.586C65.1745 218.383 65.5312 219.443 65.5312 220.766V220.867C65.5312 221.69 65.3724 222.43 65.0547 223.086C64.7422 223.737 64.2917 224.245 63.7031 224.609C63.1198 224.974 62.4479 225.156 61.6875 225.156C60.5417 225.156 59.612 224.758 58.8984 223.961C58.1901 223.164 57.8359 222.109 57.8359 220.797V220.695ZM59.2891 220.867C59.2891 221.805 59.5052 222.557 59.9375 223.125C60.375 223.693 60.9583 223.977 61.6875 223.977C62.4219 223.977 63.0052 223.69 63.4375 223.117C63.8698 222.539 64.0859 221.732 64.0859 220.695C64.0859 219.768 63.8646 219.018 63.4219 218.445C62.9844 217.867 62.401 217.578 61.6719 217.578C60.9583 217.578 60.3828 217.862 59.9453 218.43C59.5078 218.997 59.2891 219.81 59.2891 220.867ZM66.9922 220.703C66.9922 219.406 67.2995 218.365 67.9141 217.578C68.5286 216.786 69.3333 216.391 70.3281 216.391C71.3177 216.391 72.1016 216.729 72.6797 217.406V213H74.125V225H72.7969L72.7266 224.094C72.1484 224.802 71.3438 225.156 70.3125 225.156C69.3333 225.156 68.5339 224.755 67.9141 223.953C67.2995 223.151 66.9922 222.104 66.9922 220.812V220.703ZM68.4375 220.867C68.4375 221.826 68.6354 222.576 69.0312 223.117C69.4271 223.659 69.974 223.93 70.6719 223.93C71.5885 223.93 72.2578 223.518 72.6797 222.695V218.812C72.2474 218.016 71.5833 217.617 70.6875 217.617C69.9792 217.617 69.4271 217.891 69.0312 218.438C68.6354 218.984 68.4375 219.794 68.4375 220.867ZM79.1406 222.883L81.1094 216.547H82.6562L79.2578 226.305C78.7318 227.711 77.8958 228.414 76.75 228.414L76.4766 228.391L75.9375 228.289V227.117L76.3281 227.148C76.8177 227.148 77.1979 227.049 77.4688 226.852C77.7448 226.654 77.9714 226.292 78.1484 225.766L78.4688 224.906L75.4531 216.547H77.0312L79.1406 222.883ZM89.0703 219.922L83.9062 217.898V216.414L90.5781 219.367V220.508L83.9062 223.469V221.969L89.0703 219.922ZM42.0625 267.969L46.9531 269.945V271.477L40.5625 268.516V267.375L46.9531 264.422V265.953L42.0625 267.969ZM49.5234 273.977H48.2812L53.0312 261.625H54.2656L49.5234 273.977ZM62.9844 268.867C62.9844 270.159 62.6875 271.198 62.0938 271.984C61.5 272.766 60.7031 273.156 59.7031 273.156C58.6354 273.156 57.8099 272.779 57.2266 272.023L57.1562 273H55.8281V261H57.2734V265.477C57.8568 264.753 58.6615 264.391 59.6875 264.391C60.7135 264.391 61.5182 264.779 62.1016 265.555C62.6901 266.331 62.9844 267.393 62.9844 268.742V268.867ZM61.5391 268.703C61.5391 267.719 61.349 266.958 60.9688 266.422C60.5885 265.885 60.0417 265.617 59.3281 265.617C58.375 265.617 57.6901 266.06 57.2734 266.945V270.602C57.7161 271.487 58.4062 271.93 59.3438 271.93C60.0365 271.93 60.5755 271.661 60.9609 271.125C61.3464 270.589 61.5391 269.781 61.5391 268.703ZM64.4297 268.695C64.4297 267.867 64.5911 267.122 64.9141 266.461C65.2422 265.799 65.6953 265.289 66.2734 264.93C66.8568 264.57 67.5208 264.391 68.2656 264.391C69.4167 264.391 70.3464 264.789 71.0547 265.586C71.7682 266.383 72.125 267.443 72.125 268.766V268.867C72.125 269.69 71.9661 270.43 71.6484 271.086C71.3359 271.737 70.8854 272.245 70.2969 272.609C69.7135 272.974 69.0417 273.156 68.2812 273.156C67.1354 273.156 66.2057 272.758 65.4922 271.961C64.7839 271.164 64.4297 270.109 64.4297 268.797V268.695ZM65.8828 268.867C65.8828 269.805 66.099 270.557 66.5312 271.125C66.9688 271.693 67.5521 271.977 68.2812 271.977C69.0156 271.977 69.599 271.69 70.0312 271.117C70.4635 270.539 70.6797 269.732 70.6797 268.695C70.6797 267.768 70.4583 267.018 70.0156 266.445C69.5781 265.867 68.9948 265.578 68.2656 265.578C67.5521 265.578 66.9766 265.862 66.5391 266.43C66.1016 266.997 65.8828 267.81 65.8828 268.867ZM73.5859 268.703C73.5859 267.406 73.8932 266.365 74.5078 265.578C75.1224 264.786 75.9271 264.391 76.9219 264.391C77.9115 264.391 78.6953 264.729 79.2734 265.406V261H80.7188V273H79.3906L79.3203 272.094C78.7422 272.802 77.9375 273.156 76.9062 273.156C75.9271 273.156 75.1276 272.755 74.5078 271.953C73.8932 271.151 73.5859 270.104 73.5859 268.812V268.703ZM75.0312 268.867C75.0312 269.826 75.2292 270.576 75.625 271.117C76.0208 271.659 76.5677 271.93 77.2656 271.93C78.1823 271.93 78.8516 271.518 79.2734 270.695V266.812C78.8411 266.016 78.1771 265.617 77.2812 265.617C76.5729 265.617 76.0208 265.891 75.625 266.438C75.2292 266.984 75.0312 267.794 75.0312 268.867ZM85.7344 270.883L87.7031 264.547H89.25L85.8516 274.305C85.3255 275.711 84.4896 276.414 83.3438 276.414L83.0703 276.391L82.5312 276.289V275.117L82.9219 275.148C83.4115 275.148 83.7917 275.049 84.0625 274.852C84.3385 274.654 84.5651 274.292 84.7422 273.766L85.0625 272.906L82.0469 264.547H83.625L85.7344 270.883ZM95.6641 267.922L90.5 265.898V264.414L97.1719 267.367V268.508L90.5 271.469V269.969L95.6641 267.922ZM42.0625 291.969L46.9531 293.945V295.477L40.5625 292.516V291.375L46.9531 288.422V289.953L42.0625 291.969ZM49.5234 297.977H48.2812L53.0312 285.625H54.2656L49.5234 297.977ZM57.2734 289.57C57.9141 288.784 58.7474 288.391 59.7734 288.391C61.5599 288.391 62.4609 289.398 62.4766 291.414V297H61.0312V291.406C61.026 290.797 60.8854 290.346 60.6094 290.055C60.3385 289.763 59.9141 289.617 59.3359 289.617C58.8672 289.617 58.4557 289.742 58.1016 289.992C57.7474 290.242 57.4714 290.57 57.2734 290.977V297H55.8281V285H57.2734V289.57ZM66.6016 286.5V288.547H68.1797V289.664H66.6016V294.906C66.6016 295.245 66.6719 295.5 66.8125 295.672C66.9531 295.839 67.1927 295.922 67.5312 295.922C67.6979 295.922 67.9271 295.891 68.2188 295.828V297C67.8385 297.104 67.4688 297.156 67.1094 297.156C66.4635 297.156 65.9766 296.961 65.6484 296.57C65.3203 296.18 65.1562 295.625 65.1562 294.906V289.664H63.6172V288.547H65.1562V286.5H66.6016ZM71.2344 288.547L71.2734 289.484C71.8932 288.755 72.7292 288.391 73.7812 288.391C74.9635 288.391 75.7682 288.844 76.1953 289.75C76.4766 289.344 76.8411 289.016 77.2891 288.766C77.7422 288.516 78.276 288.391 78.8906 288.391C80.7448 288.391 81.6875 289.372 81.7188 291.336V297H80.2734V291.422C80.2734 290.818 80.1354 290.367 79.8594 290.07C79.5833 289.768 79.1198 289.617 78.4688 289.617C77.9323 289.617 77.487 289.779 77.1328 290.102C76.7786 290.419 76.5729 290.849 76.5156 291.391V297H75.0625V291.461C75.0625 290.232 74.4609 289.617 73.2578 289.617C72.3099 289.617 71.6615 290.021 71.3125 290.828V297H69.8672V288.547H71.2344ZM85.4766 297H84.0312V285H85.4766V297ZM92.9141 291.922L87.75 289.898V288.414L94.4219 291.367V292.508L87.75 295.469V293.969L92.9141 291.922Z" fill="black"/>
</svg>
